<?xml version="1.0" standalone="no"?>
<!DOCTYPE svg PUBLIC "-//W3C//DTD SVG 1.1//EN" "http://www.w3.org/Graphics/SVG/1.1/DTD/svg11.dtd">
<svg xmlns="http://www.w3.org/2000/svg">
<metadata>Copyright (C) 2017 by original authors @ fontello.com</metadata>
<defs>
<font id="font-auc" horiz-adv-x="1000" >
<font-face font-family="font-auc" font-weight="400" font-stretch="normal" units-per-em="1000" ascent="850" descent="-150" />
<missing-glyph horiz-adv-x="1000" />
<glyph glyph-name="mobile" unicode="&#xe800;" d="M0-56l0 812q0 39 27 67t67 27l500 0q39 0 66-27t28-67l0-812q0-39-28-67t-66-27l-500 0q-39 0-67 27t-27 67z m63 0q0-14 8-23t23-9l500 0q13 0 22 9t9 23l0 62-562 0 0-62z m0 94l562 0 0 624-562 0 0-624z m0 656l562 0 0 62q0 14-9 23t-22 8l-500 0q-14 0-23-8t-8-23l0-62z m218 47q0 15 16 15l94 0q15 0 15-15t-15-16l-94 0q-16 0-16 16z m32-782q0 16 15 16l31 0q16 0 16-16t-16-15l-31 0q-15 0-15 15z" horiz-adv-x="687" />

<glyph glyph-name="shop-1" unicode="&#xe801;" d="M64 538l145 250h581l148-250h-874v0z m874-125c-1-44-51-63-94-63-50 0-96 30-96 63h-29c0-32-56-63-104-63-47 0-100 32-100 63h-31c0-32-54-63-100-63-49 0-104 22-104 63h-29c0-32-49-64-95-64-47 0-93 20-93 64v62h875v-62 0z m-32-313h-812l0 188h61c34 0 87 29 109 75 26-44 73-75 118-75 48 0 100 28 118 69 17-40 68-69 115-69 46 0 94 34 118 80 29-47 52-80 111-80 9 0 54-2 62 0v-188 0z m0-125c0-35-33-63-68-63h-677c-35 0-67 28-67 63v63h812v-63 0z m-89 875h-635l-182-312v-125c0-34 12-70 31-94l1-344c0-69 58-125 129-125h677c71 0 131 56 131 125v344c22 26 31 52 31 94v125l-183 312v0z" horiz-adv-x="1000" />

<glyph glyph-name="right" unicode="&#xe802;" d="M998 342c1 2 1 4 2 6 0 1 0 1 0 2 0 2-1 4-1 6 0 0 0 1-1 2-1 3-2 5-4 7l-375 375c-8 8-21 8-30 0-8-8-8-22 0-30l340-339h-908c-12 0-21-9-21-21 0-11 9-21 21-21h908l-340-339c-8-8-8-22 0-30 5-4 10-6 15-6 6 0 11 2 15 6l375 375c1 1 1 2 1 2 1 2 3 3 3 5z" horiz-adv-x="1000" />

<glyph glyph-name="cart" unicode="&#xe803;" d="M800-17c-37 0-67-30-67-66 0-37 30-67 67-67 37 0 67 30 67 67 0 36-30 66-67 66v0z m-333 0c-37 0-67-30-67-66 0-37 30-67 67-67 37 0 66 30 66 67 0 36-29 66-66 66v0z m433 200c0-36-30-66-67-66h-366c-37 0-67 30-67 66l-56 334h639l-83-334v0z m-568 400l-83 267h-216c-18 0-33-15-33-33 0-19 15-34 33-34h167l67-200h0l66-400c0-73 60-133 134-133h366c74 0 134 60 134 133l100 400h-735v0z" horiz-adv-x="1067" />

<glyph glyph-name="search" unicode="&#xe804;" d="M421 86c-197 0-356 157-356 350 0 193 159 350 356 350 196 0 356-157 356-350 0-193-160-350-356-350v0z m569-181l-258 254c68 73 109 170 109 277 0 229-188 414-420 414-233 0-421-185-421-414 0-228 188-414 421-414 100 0 192 35 264 93l260-255c12-13 33-13 45 0 13 12 13 32 0 45v0z" horiz-adv-x="1000" />

<glyph glyph-name="comment" unicode="&#xe805;" d="M0 413q0 156 147 265t353 109 354-109 146-265-146-266-354-109q-47 0-96 7-29-35-89-78t-122-55l-9 0q-12 0-20 8t-8 20q0 6 2 12 0 1 13 21t18 29 13 30 13 36 4 32l0 2q-102 53-160 134t-59 177z m63 0q0-75 48-143t137-111q33-18 33-57l0-6q0-41-21-92 60 37 95 80 18 24 49 24 4 0 8-2 45-6 88-6 182 0 310 92t127 221-127 220-310 92-310-92-127-220z m93 0q0 89 102 154t242 64q16 0 16-15t-16-16q-125 0-219-57t-93-130q0-16-16-16t-16 16z" horiz-adv-x="1000" />

<glyph glyph-name="star" unicode="&#xe806;" d="M929 489q0-12-15-27l-202-197 48-279q0-4 0-12 0-11-6-19t-17-9q-10 0-22 7l-251 132-250-132q-12-7-23-7-11 0-17 9t-6 19q0 4 1 12l48 279-203 197q-14 15-14 27 0 21 31 26l280 40 126 254q11 23 27 23t28-23l125-254 280-40q32-5 32-26z" horiz-adv-x="928.6" />

<glyph glyph-name="star-empty" unicode="&#xe807;" d="M635 290l170 166-235 34-106 213-105-213-236-34 171-166-41-235 211 111 211-111z m294 199q0-12-15-27l-202-197 48-279q0-4 0-12 0-28-23-28-10 0-22 7l-251 132-250-132q-12-7-23-7-11 0-17 9t-6 19q0 4 1 12l48 279-203 197q-14 15-14 27 0 21 31 26l280 40 126 254q11 23 27 23t28-23l125-254 280-40q32-5 32-26z" horiz-adv-x="928.6" />

<glyph glyph-name="arrow-right-circle" unicode="&#xe808;" d="M500-88c-242 0-437 196-437 438 0 242 195 438 437 438 242 0 438-196 438-438 0-242-196-438-438-438v0z m0 938c-276 0-500-224-500-500 0-276 224-500 500-500 276 0 500 224 500 500 0 276-224 500-500 500v0z m204-472l-176 176c-13 13-32 13-45 0-12-12-12-32 0-44l129-129h-331c-17 0-31-14-31-31 0-17 14-31 31-31h331l-129-129c-12-12-12-32 0-44 13-13 32-13 45 0l176 177c8 7 10 17 8 27 2 10 0 20-8 28v0z" horiz-adv-x="1000" />

<glyph glyph-name="calendar" unicode="&#xe809;" d="M0-66l0 738q0 35 24 60t60 24l135 0 0 63q0 13 9 22t22 9 22-9 9-22l0-63 188 0 0 63q0 13 9 22t22 9 22-9 9-22l0-63 188 0 0 63q0 13 9 22t22 9 22-9 9-22l0-63 135 0q35 0 60-24t24-60l0-738q0-35-24-60t-60-24l-832 0q-35 0-60 24t-24 60z m63 0q0-10 5-16t16-6l832 0q10 0 16 6t5 16l0 738q0 10-5 16t-16 6l-135 0 0-63q0-13-9-22t-22-9-22 9-9 22l0 63-188 0 0-63q0-13-9-22t-22-9-22 9-9 22l0 63-188 0 0-63q0-13-9-22t-22-9-22 9-9 22l0 63-135 0q-10 0-16-6t-5-16l0-738z m156 135l0 94 125 0 0-94-125 0z m0 156l0 94 125 0 0-94-125 0z m0 156l0 94 125 0 0-94-125 0z m219-312l0 94 125 0 0-94-125 0z m0 156l0 94 125 0 0-94-125 0z m0 156l0 94 125 0 0-94-125 0z m218-312l0 94 125 0 0-94-125 0z m0 156l0 94 125 0 0-94-125 0z m0 156l0 94 125 0 0-94-125 0z" horiz-adv-x="1000" />

<glyph glyph-name="download" unicode="&#xe80a;" d="M342 370c-6 7-17 7-24 0-6-6-6-17 0-24l169-169c4-3 8-5 12-5l1 0 0 0c6 0 10 3 14 7l167 168c7 7 7 17 0 24-6 6-17 6-24 0l-140-140v602c0 9-8 17-17 17-9 0-17-8-17-17v-604l-141 141z m277 209c-10 0-17-8-17-17 0-9 7-17 17-17h220v-661h-678v661h220c10 0 17 8 17 17 0 9-7 17-17 17h-254v-729h746v729h-254z" horiz-adv-x="1000" />

<glyph glyph-name="list-add" unicode="&#xe80b;" d="M350 400q22 0 36-15t14-35-15-35-35-15l-300 0q-20 0-35 15t-15 35 14 35 36 15l300 0z m0-200q22 0 36-15t14-35-15-35-35-15l-300 0q-20 0-35 15t-15 35 14 35 36 15l300 0z m620 200q30 0 30-50t-30-50l-170 0 0-170q0-30-50-30t-50 30l0 170-164 0q-30 0-30 50t30 50l164 0 0 170q0 30 50 30t50-30l0-170 170 0z m-620 200q22 0 36-15t14-35-15-35-35-15l-300 0q-20 0-35 15t-15 35 14 35 36 15l300 0z" horiz-adv-x="1000" />

<glyph glyph-name="attach" unicode="&#xe80c;" d="M0 99q0 91 64 155l456 451q82 82 199 82t199-82 82-199-82-199l-344-342q-21-23-44-1t1 44l338 340q65 63 65 153t-65 156-155 64-153-64l-454-448q-44-45-44-109t45-110 111-46 109 45l457 451q27 27 27 66t-27 67-66 27-67-27l-341-344q-24-22-45 1t0 44l341 344q47 44 112 44t110-45 46-111-45-111l-457-449q-64-65-155-65t-154 64-64 154z" horiz-adv-x="1000" />

<glyph glyph-name="cog" unicode="&#xe80d;" d="M0 307l0 86q0 21 15 39t36 22l96 19q5 20 15 41l-53 80q-13 20-10 42t18 38l59 59q19 19 45 19 19 0 35-11l80-53q21 10 41 16l20 95q3 22 21 36t39 15l86 0q21 0 39-15t22-36l19-95q20-6 41-16l80 53q16 11 35 11 26 0 45-19l59-59q17-15 19-38t-11-42l-53-80q10-21 16-41l95-19q22-4 36-22t15-39l0-86q0-21-15-39t-36-21l-95-20q-6-20-16-41l53-80q13-20 11-42t-19-38l-59-59q-19-19-45-19-19 0-35 11l-80 53q-21-10-41-16l-19-95q-4-22-22-36t-39-15l-86 0q-21 0-39 14t-21 37l-20 95q-20 6-41 16l-80-53q-16-11-35-11-26 0-45 19l-59 59q-15 15-18 38t10 42l53 80q-10 21-15 41l-96 20q-22 3-36 21t-15 39z m63 0l95-19q35-6 47-40 6-17 14-35 15-31-4-60l-55-82 61-61 82 55q15 10 33 10 16 0 27-6 18-8 35-14 34-12 40-47l19-96 86 0 20 96q5 35 39 47 17 6 35 14 11 6 27 6 18 0 33-10l82-55 61 61-55 82q-19 29-4 60 8 18 14 35 12 34 47 40l95 19 0 86-95 20q-35 5-47 39-6 17-14 35-15 31 4 60l55 82-61 61-82-55q-15-10-33-10-16 0-27 6-18 8-35 14-34 12-39 47l-20 95-86 0-19-95q-6-35-40-47-17-6-35-14-11-6-27-6-18 0-33 10l-82 55-61-61 55-82q19-29 4-60-8-18-14-35-12-34-47-39l-95-20 0-86z m218 43q0 90 65 154t154 65 154-65 65-154-65-154-154-65-154 65-65 154z m28 0q0-80 55-136t136-55 136 55 55 136-55 136-136 55-136-55-55-136z m66 0q0 53 36 89t89 36 89-37 36-89-36-88-89-36-89 36-36 89z m31 0q0-39 28-66t66-28 66 28 28 66-28 66-66 28-66-28-28-66z" horiz-adv-x="1000" />

<glyph glyph-name="globe" unicode="&#xe80e;" d="M0 366q0 201 142 342t342 142 343-142 142-342-142-343-343-142-342 142-142 343z m63-16q7-166 125-283 52 37 109 60-43 106-47 223l-187 0z m0 31l187 0q4 104 37 196-62 25-117 68-102-113-107-264z m128 287q51-39 108-62 43 101 117 176-131-22-225-114z m20-623q88-76 205-95-64 64-105 148-53-19-100-53z m70 305q4-111 45-213 69 22 143 26l0 187-188 0z m0 31l188 0 0 157q-78 3-153 29-31-88-35-186z m47 215q69-23 141-27l0 218-2 0q-90-76-139-191z m12-486q49-100 127-166l2 0 0 187q-69-4-129-21z m160-166l2 0q78 66 127 166-61 17-129 21l0-187z m0 219q74-4 143-26 41 102 45 213l-188 0 0-187z m0 218l188 0q-4 98-36 186-74-26-152-29l0-157z m0 188q72 4 141 27-49 115-139 191l-2 0 0-218z m53-619q117 19 205 95-47 34-100 53-41-84-105-148z m0 832q74-75 117-176 57 23 107 62-93 92-224 114z m119-655q57-23 109-60 117 117 125 283l-187 0q-4-117-47-223z m10 450q33-92 37-196l187 0q-6 151-107 264-55-43-117-68z" horiz-adv-x="969" />

<glyph glyph-name="plus" unicode="&#xe80f;" d="M500 850c-276 0-500-224-500-500 0-276 224-500 500-500 276 0 500 224 500 500 0 276-224 500-500 500z m0-962c-254 0-461 208-461 462 0 255 207 462 461 462 255 0 462-207 462-462 0-254-207-462-462-462z m240 481h-221v212c0 10-8 19-19 19-11 0-19-9-19-19v-212h-221c-11 0-20-8-20-19 0-11 9-19 20-19h221v-231c0-11 8-19 19-19 11 0 19 8 19 19v231h221c11 0 20 8 20 19 0 11-9 19-20 19z" horiz-adv-x="1000" />

<glyph glyph-name="circle-minus" unicode="&#xe810;" d="M811 661c-90 90-209 139-336 139-127 0-246-49-336-139-90-90-139-209-139-336 0-127 49-246 139-336 90-90 209-139 336-139 127 0 246 49 336 139 90 90 139 209 139 336 0 127-49 246-139 336z m-336-761c-234 0-425 191-425 425 0 234 191 425 425 425 234 0 425-191 425-425 0-234-191-425-425-425z m300 400h-600c-14 0-25 11-25 25 0 14 11 25 25 25h600c14 0 25-11 25-25 0-14-11-25-25-25z" horiz-adv-x="1000" />

<glyph glyph-name="angle-up" unicode="&#xe811;" d="M804 130l-372 358-370-358q-26-22-50 0-24 24 0 50l396 390q26 26 48 0l396-390q24-26 0-50-26-22-48 0z" horiz-adv-x="864" />

<glyph glyph-name="cross" unicode="&#xe812;" d="M535 325l283 282c9 10 9 26 0 36-10 9-26 9-36 0l-282-283-282 283c-10 9-26 9-36 0-9-10-9-26 0-36l283-282-283-282c-9-10-9-26 0-36 5-5 12-7 18-7 6 0 13 3 18 7l282 283 282-283c5-5 12-7 18-7 6 0 13 3 18 7 10 10 10 26 0 36l-283 282z" horiz-adv-x="1000" />

<glyph glyph-name="cross-circle" unicode="&#xe813;" d="M717 144l-204 181 204 181c10 9 11 25 2 36-9 10-25 11-36 2l-208-186-208 186c-11 9-26 8-36-2-9-11-8-26 2-36l204-181-204-181c-10-9-11-25-2-36 5-5 12-8 19-8 6 0 12 2 17 6l208 186 208-186c5-4 11-6 17-6 7 0 14 3 19 8 9 11 8 27-2 36z m-242-294c-127 0-246 49-336 139-90 90-139 209-139 336 0 127 49 246 139 336 90 90 209 139 336 139 127 0 246-49 336-139 90-90 139-209 139-336 0-127-49-246-139-336-90-90-209-139-336-139z m0 900c-234 0-425-191-425-425 0-234 191-425 425-425 234 0 425 191 425 425 0 234-191 425-425 425z" horiz-adv-x="1000" />

<glyph glyph-name="gift" unicode="&#xe814;" d="M925 600h-150c16 21 25 47 25 75 0 69-56 125-125 125-69 0-128-55-156-88-18-20-32-41-44-62-11 21-26 42-44 62-28 33-86 88-156 88-69 0-125-56-125-125 0-28 9-54 25-75h-150c-14 0-25-11-25-25v-150c0-14 11-25 25-25h25v-475c0-41 34-75 75-75h700c41 0 75 34 75 75v475h25c14 0 25 11 25 25v150c0 14-11 25-25 25z m-369 79c40 45 83 71 119 71 41 0 75-34 75-75 0-41-34-75-75-75h-169c9 22 26 52 50 79z m-6-779h-150v650h150v-650z m-350 775c0 41 34 75 75 75 36 0 80-26 119-71 24-27 41-57 50-79h-169c-41 0-75 34-75 75z m-150-125h300v-100h-300v100z m50-625v475h250v-500h-225c-14 0-25 11-25 25z m750 0c0-14-11-25-25-25h-225v500h250v-475z m50 525h-300v100h300v-100z" horiz-adv-x="1000" />

<glyph glyph-name="menu" unicode="&#xe815;" d="M500 850c-276 0-500-224-500-500 0-276 224-500 500-500 276 0 500 224 500 500 0 276-224 500-500 500z m0-964c-256 0-464 208-464 464 0 256 208 464 464 464 256 0 464-208 464-464 0-256-208-464-464-464z m-232 660h464c10 0 18 8 18 18 0 10-8 18-18 18h-464c-10 0-18-8-18-18 0-10 8-18 18-18z m536-250h-608c-9 0-17-8-17-17 0-10 8-18 17-18h608c9 0 17 8 17 18 0 9-8 17-17 17z m0 143h-608c-9 0-17-8-17-18 0-9 8-17 17-17h608c9 0 17 8 17 17 0 10-8 18-17 18z m-72-285h-464c-10 0-18-8-18-18 0-10 8-18 18-18h464c10 0 18 8 18 18 0 10-8 18-18 18z" horiz-adv-x="1000" />

<glyph glyph-name="substract" unicode="&#xe816;" d="M0 374h1000v-48h-1000z" horiz-adv-x="1000" />

<glyph glyph-name="book-open" unicode="&#xe817;" d="M340 238l0-68-200 80 0 68z m0 208l0-68-200 80 0 68z m538 346q22-12 22-42l0-640q0-34-32-46l-398-160q-8-2-10-2t-5-1-5-1-5 1-5 1l-10 2-398 160q-32 12-32 46l0 640q0 30 22 42 22 16 46 6l382-154 382 154q24 10 46-6z m-478-788l0 560-320 128 0-560z m420 128l0 560-320-128 0-560z m-60 186l0-68-200-80 0 68z m0 208l0-68-200-80 0 68z" horiz-adv-x="900" />

<glyph glyph-name="success" unicode="&#xe818;" d="M500 850c-276 0-500-224-500-500 0-276 224-500 500-500 276 0 500 224 500 500 0 276-224 500-500 500z m0-962c-254 0-461 208-461 462 0 255 207 462 461 462 255 0 462-207 462-462 0-254-207-462-462-462z m236 667l-296-332-178 142c-8 7-20 5-27-3-7-8-5-20 3-27l192-154c4-3 8-4 12-4 6 0 11 2 15 6l307 347c7 8 7 20-1 27-8 7-20 6-27-2z" horiz-adv-x="1000" />

<glyph glyph-name="user-3" unicode="&#xe819;" d="M1000 350c0 276-224 500-500 500-276 0-500-224-500-500 0-146 63-277 162-368l0-1 16-13 3-3c9-7 18-14 27-20l9-7c10-6 20-13 30-19l6-4c12-6 23-12 35-18l2-1c38-17 79-30 121-38l3-1c14-2 27-4 40-5l5 0c14-1 27-2 41-2 14 0 27 1 40 2l6 0c13 1 26 3 39 5l4 1c41 7 81 20 119 37l4 2c11 5 22 11 33 17l8 5c10 6 19 12 29 18l10 7c8 6 15 12 23 18l5 4 17 14-1 0c101 92 164 224 164 370z m-964 0c0 256 208 464 464 464 256 0 464-208 464-464 0-138-61-262-156-347-6 4-11 7-17 10l-154 77c-13 7-22 21-22 36v54c4 5 7 10 11 15 20 28 36 59 48 93 23 11 38 34 38 60v64c0 16-6 31-16 44v84c0 10 4 63-35 107-33 38-87 58-161 58-73 0-128-20-161-58-39-44-35-97-34-107v-84c-11-12-17-28-17-44v-64c0-20 9-39 25-51 15-58 45-102 56-116v-53c0-15-8-29-21-36l-144-78c-4-3-9-5-13-9-95 85-155 208-155 345z m736-375c-6-5-13-9-19-14l-9-5c-9-6-18-11-27-15l-6-4c-20-10-41-19-63-26l-2-1c-12-4-23-7-35-10l0 0c-12-3-24-6-36-7l-1-1c-11-2-22-3-34-4l-6 0c-11-1-23-2-34-2-11 0-23 1-34 2l-6 0c-12 1-23 3-35 4l-1 1c-24 4-48 10-71 17l-2 1c-12 4-23 8-34 13l0 0c-11 5-21 10-31 15l-4 2c-9 5-19 10-28 16l-7 5c-9 5-17 11-25 17l-2 2 2 1 143 78c25 14 40 40 40 68l0 65-4 5c0 1-39 49-54 113l-2 8-6 4c-9 5-14 15-14 25v64c0 9 3 17 10 23l6 5v101l0 3c0 0-6 44 25 79 26 30 72 45 134 45 62 0 107-15 134-45 30-34 25-79 25-79l0-104 6-5c7-6 10-14 10-23v-64c0-13-9-25-21-29l-9-2-3-9c-11-34-26-65-46-92-4-7-9-13-13-17l-4-5v-68c0-29 16-55 42-68l154-77 3-2-6-4z" horiz-adv-x="1000" />

<glyph glyph-name="users-1" unicode="&#xe81a;" d="M925 74l-163 71c-3 2-8 6-11 13l108 0c2 0 47-5 83 11 14 6 24 17 28 32 4 14 1 29-7 42-31 44-104 160-106 277 0 2-7 201-204 203-29 0-55-5-80-14-5 13-13 27-25 41-34 39-89 58-165 58-75 0-131-19-165-58-39-45-36-100-35-109v-89c-10-12-16-28-16-44v-66c0-21 9-39 25-52 15-61 47-106 58-121v-55c0-16-9-31-23-39l-149-81c-48-26-78-77-78-132v-70h1000v61c0 52-29 98-75 121z m-192-149h-700v37c0 43 24 83 61 103l149 81c25 14 40 40 40 68v67l-4 5c0 0-41 50-56 117l-2 7-6 4c-9 6-15 16-15 28v66c0 10 4 18 11 25l6 5v104l0 2c0 0-6 47 26 84 28 31 75 47 140 47 65 0 113-16 140-47 14-16 21-33 24-48l1-3 1-4 0-4 1-2 0-6 0-1 0-5 0 0 1-4v-1l-1-6 0-106 6-5c7-7 11-15 11-25v-66c0-15-10-28-24-32l-8-2-3-9c-11-34-27-66-47-95-5-7-10-13-14-18l-4-5v-68c0-5 0-9 1-13l0-2c1-4 2-7 3-10l1-2c1-4 3-7 4-11l1-1c2-4 5-8 8-12l4-4h1c5-6 12-11 19-15l160-79c40-20 64-60 64-105v-34z m234 0h-200v34c0 57-32 109-83 135l-115 57c3 6 4 14 1 21-4 11-15 19-27 19h-37l-2 4-2 6c-1 4-2 8-2 12v56c4 5 8 10 12 16 21 29 37 61 49 96 24 11 39 34 39 61v66c0 16-6 32-17 44v89c1 4 2 18-1 35 21 9 46 13 71 13 165-1 170-163 171-170 2-126 79-249 112-295 2-4 3-9 2-14-1-3-3-8-9-10-28-13-66-9-68-9h-115c-10 0-20-5-26-15-5-9-6-20-1-29 5-11 14-25 29-32l163-71c34-17 56-52 56-91v-28z" horiz-adv-x="1000" />

<glyph glyph-name="card" unicode="&#xe81b;" d="M896 17h-792c-46 0-83 37-83 83v500c0 46 37 83 83 83h792c46 0 83-37 83-83v-500c0-46-37-83-83-83z m-833 396h875v83h-875v-83z m875 187c0 23-19 42-42 42h-792c-23 0-41-19-41-42v-62h875v62z m0-229h-875v-271c0-23 18-42 41-42h792c23 0 42 19 42 42v271z m-396-125h-84c-11 0-20 9-20 21 0 11 9 21 20 21h84c11 0 21-10 21-21 0-12-10-21-21-21z m-188 0h-187c-12 0-21 9-21 21 0 11 9 21 21 21h187c12 0 21-10 21-21 0-12-9-21-21-21z m-187-63h125c11 0 21-9 21-20 0-12-10-21-21-21h-125c-12 0-21 9-21 21 0 11 9 20 21 20z" horiz-adv-x="1000" />

<glyph glyph-name="facebook-circled" unicode="&#xe81c;" d="M800 683q138-138 138-333 0-193-138-331t-331-138q-195 0-333 138-136 136-136 331 0 197 136 333 135 136 333 136 195 0 331-136z m-384-271q0 61 39 104t98 43l72 0 0-105-72 0q-13 0-22-9t-10-22l0-73 104 0 0-103-104 0 0-258q117 15 205 104 108 107 108 257 0 153-108 259t-257 106q-153 0-259-106t-106-259q0-150 106-257 89-89 206-104l0 258-103 0 0 103 103 0 0 62z" horiz-adv-x="938" />

<glyph glyph-name="print" unicode="&#xe81d;" d="M0-50l0 333 116 129 85 0 0-64-56 0-80-89 0-245 795 0 0 245-80 89-56 0 0 64 85 0 115-129 0-333-924 0z m201 319l0 330 151 151 372 0 0-481-523 0z m60 61l403 0 0 360-252 0 0-151-151 0 0-209z" horiz-adv-x="924" />

<glyph glyph-name="list" unicode="&#xe81e;" d="M975 50h-750c-14 0-25 11-25 25 0 14 11 25 25 25h750c14 0 25-11 25-25 0-14-11-25-25-25z m0 250h-750c-14 0-25 11-25 25 0 14 11 25 25 25h750c14 0 25-11 25-25 0-14-11-25-25-25z m0 250h-750c-14 0-25 11-25 25 0 14 11 25 25 25h750c14 0 25-11 25-25 0-14-11-25-25-25z m-900-50c-41 0-75 34-75 75 0 41 34 75 75 75 41 0 75-34 75-75 0-41-34-75-75-75z m0 100c-14 0-25-11-25-25 0-14 11-25 25-25 14 0 25 11 25 25 0 14-11 25-25 25z m0-350c-41 0-75 34-75 75 0 41 34 75 75 75 41 0 75-34 75-75 0-41-34-75-75-75z m0 100c-14 0-25-11-25-25 0-14 11-25 25-25 14 0 25 11 25 25 0 14-11 25-25 25z m0-350c-41 0-75 34-75 75 0 41 34 75 75 75 41 0 75-34 75-75 0-41-34-75-75-75z m0 100c-14 0-25-11-25-25 0-14 11-25 25-25 14 0 25 11 25 25 0 14-11 25-25 25z" horiz-adv-x="1000" />

<glyph glyph-name="angle-left" unicode="&#xe81f;" d="M452-20q26-26 0-48-26-26-48 0l-392 394q-24 24 0 50l392 394q22 26 48 0 26-22 0-48l-358-372z" horiz-adv-x="465" />

<glyph glyph-name="dislike" unicode="&#xe820;" d="M698 850v-34h-482c-48 0-87-39-87-87 0-20 7-38 19-53-40-7-70-43-70-85 0-20 7-38 18-53-40-7-70-42-70-85 0-43 24-63 47-72-18-16-30-40-30-65 0-48 39-87 86-87h248l-13-58c-16-79-5-168-2-193 9-61 63-128 121-128h4c27 0 73 16 73 121 0 138 35 201 64 230 28 28 56 28 57 28h17v-34h276v655h-276z m-16-586c-2 0-42 1-81-37-50-48-75-135-75-256 0-33-5-87-39-87h-4c-39 0-80 54-86 99-4 24-14 108 1 180l22 101h-291c-28 0-51 23-51 52 0 28 23 51 51 51h173c9 0 17 8 17 18 0 9-8 17-17 17h-121c-15 0-49 0-66 3-45 7-55 24-55 48 0 29 24 52 52 52h190c9 0 17 8 17 17 0 10-8 18-17 18h-138c-29 0-52 23-52 51 0 29 23 52 52 52h172c10 0 17 8 17 17 0 10-7 18-17 18h-120c-29 0-52 23-52 51 0 29 23 52 52 52h482v-517l-16 0z m258-35h-207v587h207v-587z m-104 362c48 0 86 39 86 87 0 47-38 86-86 86-47 0-86-39-86-86 0-48 39-87 86-87z m0 138c29 0 52-23 52-51 0-29-23-52-52-52-28 0-51 23-51 52 0 28 23 51 51 51z" horiz-adv-x="1000" />

<glyph glyph-name="exit" unicode="&#xe821;" d="M575 450c14 0 25 11 25 25v200c0 41-34 75-75 75h-450c-41 0-75-34-75-75v-600c0-37 27-78 61-93l258-110c9-4 18-6 27-6 11 0 21 3 29 9 16 10 25 28 25 50v75h125c41 0 75 34 75 75v200c0 14-11 25-25 25-14 0-25-11-25-25v-200c0-14-11-25-25-25h-125v475c0 37-27 78-61 93l-192 82h378c14 0 25-11 25-25v-200c0-14 11-25 25-25z m-256 122c16-7 31-29 31-47v-600c0-5-1-8-2-9l-9 2-258 110c-16 7-31 30-31 47v600c0 4 1 8 3 11l266-114z m599-179l-150 150c-10 9-26 9-36 0-9-10-9-26 0-36l108-107h-315c-14 0-25-11-25-25 0-14 11-25 25-25h315l-108-107c-9-10-9-26 0-36 5-4 12-7 18-7 6 0 13 3 18 7l150 150c10 10 10 26 0 36z" horiz-adv-x="1000" />

<glyph glyph-name="heart" unicode="&#xe822;" d="M500-88l-422 422c-104 104-104 273 0 376 50 50 117 78 188 78 71 0 137-28 188-78l46-46 46 46c51 50 117 78 188 78 71 0 138-28 188-78 50-50 78-117 78-188 0-71-28-137-78-188l-422-422z m-234 837c-61 0-118-23-161-66-89-89-89-233 0-321l395-396 395 396c43 42 67 100 67 160 0 61-24 118-67 161-43 43-100 66-161 66-60 0-117-23-160-66l-74-74-74 74c-43 43-100 66-160 66z" horiz-adv-x="1000" />

<glyph glyph-name="question" unicode="&#xe823;" d="M811 661c-90 90-209 139-336 139-127 0-246-49-336-139-90-90-139-209-139-336 0-127 49-246 139-336 90-90 209-139 336-139 127 0 246 49 336 139 90 90 139 209 139 336 0 127-49 246-139 336z m-336-761c-234 0-425 191-425 425 0 234 191 425 425 425 234 0 425-191 425-425 0-234-191-425-425-425z m0 200c-14 0-25 11-25 25v100c0 14 11 25 25 25 97 0 175 79 175 175 0 97-78 175-175 175-96 0-175-78-175-175 0-14-11-25-25-25-14 0-25 11-25 25 0 124 101 225 225 225 124 0 225-101 225-225 0-116-88-211-200-224v-76c0-14-11-25-25-25z m0-150c-14 0-25 11-25 25v50c0 14 11 25 25 25 14 0 25-11 25-25v-50c0-14-11-25-25-25z" horiz-adv-x="1000" />

<glyph glyph-name="heart-1" unicode="&#xe825;" d="M0 476q0 122 88 210 84 84 204 86t208-78q88 80 208 78t204-86q88-88 88-210t-88-210q-4-4-346-342-27-27-66-27t-66 27q-2 0-346 342-88 88-88 210z m63 0q0-97 70-165l346-342q21-23 43 0l345 342q70 68 70 165t-70 165q-66 66-160 68t-164-60l-43-39-43 39q-70 62-164 60t-160-68q-70-68-70-165z m93 7q0 55 39 94t94 39q16 0 16-16t-16-16q-41 0-71-29t-30-72q0-16-16-16t-16 16z" horiz-adv-x="1000" />

<glyph glyph-name="bell" unicode="&#xe826;" d="M583-24c0 0 0-1 0-1 0-46-37-83-83-83-46 0-83 37-83 83 0 0 0 1 0 1-266 7-334 51-334 103 0 17 8 32 25 46 126 140 163 101 163 308 0 138 6 265 172 288-3 8-5 16-5 25 0 34 28 62 62 62 34 0 62-28 62-62 0-9-2-17-5-25 167-23 172-150 172-288 0-208 38-168 164-309 17-14 24-29 24-45 0-52-70-96-334-103z m-83-43c23 0 42 19 42 42 0 0 0 0 0 0-14 0-27 0-42 0-14 0-28 0-41 0 0 0 0 0 0 0 0-23 18-42 41-42z m0 834c-11 0-21-10-21-21 0-12 10-21 21-21 12 0 21 9 21 21 0 11-9 21-21 21z m367-676c0 0-32 36-84 83-71 65-95 96-95 259 0 160-9 250-188 250-179 0-187-90-187-250 0-163-25-194-96-259-51-46-83-82-83-82-9-7-9-11-9-13 0-2 4-62 375-62 371 0 375 60 375 62 0 2 0 6-8 12z" horiz-adv-x="1000" />

<glyph glyph-name="book-album" unicode="&#xe82b;" d="M938 69c0-35-29-52-63-63 0 0-170-47-344-93v781l344 94c35 0 63-28 63-63v-656 0z m-469-156c-171 45-344 93-344 93-35 10-62 28-62 63v656c0 35 28 63 62 63l344-94v-781 0z m406 937c0 0-181-50-345-94-21 0-42 0-62 0-157 42-343 94-343 94-69 0-125-56-125-125v-656c0-69 59-104 125-125 0 0 169-47 343-94h63c176 47 344 94 344 94 64 16 125 56 125 125v656c0 69-56 125-125 125v0z" horiz-adv-x="1000" />

<glyph glyph-name="edit" unicode="&#xe82f;" d="M496 189l64 65-85 85-64-65v-31h53v-54h32z m245 402q-9 9-18 0l-196-196q-9-9 0-18t18 0l196 196q9 9 0 18z m45-331v-106q0-67-47-114t-114-47h-464q-67 0-114 47t-47 114v464q0 66 47 113t114 48h464q35 0 65-14 9-4 10-13 2-10-5-16l-27-28q-8-8-18-4-13 3-25 3h-464q-37 0-63-26t-27-63v-464q0-37 27-63t63-27h464q37 0 63 27t26 63v70q0 7 5 12l36 36q8 8 20 4t11-16z m-54 411l161-160-375-375h-161v160z m248-73l-51-52-161 161 51 52q16 15 38 15t38-15l85-85q16-16 16-38t-16-38z" horiz-adv-x="1000" />

<glyph glyph-name="shield" unicode="&#xe835;" d="M936 637c0 39-23 65-63 70-7 1-15 2-23 3-22 3-43 5-63 9-79 18-155 53-239 112-14 10-30 19-48 19-18 0-33-9-47-18-113-78-215-118-320-124-45-3-69-29-69-75 0-27 0-55 0-82v-1c0-76 0-155 0-232 1-29 4-59 11-90 16-71 53-135 113-195 75-76 168-134 286-178 8-3 17-5 25-5 11 0 22 2 32 7 6 3 13 5 19 8l1 0c28 12 58 25 86 40 96 51 168 110 222 183 47 65 72 130 75 199 1 14 1 28 1 44l1 128c0 1 0 2 0 2v50c0 42 0 84 0 126z m-50-175c0-1 0-1 0-2l-1-129c0-15 0-29-1-41-2-60-24-116-66-173-48-66-115-121-204-168-27-14-55-26-83-38l-1 0c-6-3-13-6-19-9-4-1-8-2-12-2-3 0-5 0-8 1-110 42-198 97-268 167-52 54-85 110-99 171-6 27-10 54-10 79-1 77 0 156 0 232v1c0 27 0 55 0 82 0 10 1 17 4 20 3 2 9 4 18 5 115 7 225 49 345 133 10 6 16 9 19 9 3 0 10-3 19-10 90-62 172-100 257-119 23-5 45-8 69-10 7-1 15-2 22-3 15-2 19-7 19-21 0-42 0-84 0-125l0-50z m-351-86h-70c-28 0-51 23-51 51 0 28 23 51 51 51h123c13 0 25 12 25 25 0 14-12 25-25 25h-63v48c0 14-11 25-25 25-14 0-25-11-25-25v-48h-10c-56 0-101-45-101-101 0-56 45-101 101-101h70c28 0 51-23 51-52 0-28-23-51-51-51h-125c-14 0-25-11-25-25 0-14 11-25 25-25h65v-49c0-13 11-24 25-24 14 0 25 11 25 24v49h10c1 0 1 0 1 0 55 1 100 46 100 101 0 56-45 102-101 102z" horiz-adv-x="1000" />

<glyph glyph-name="chronometer" unicode="&#xe837;" d="M944 504c7-7 18-7 25 0l26 26c7 7 7 18 0 25l-58 58c-7 8-19 8-26 0l-26-25c-7-7-7-19 0-26l3-2-18-18c-46 36-101 60-162 67v33h20c10 0 18 8 18 18v53c0 10-8 18-18 18h-115c-10 0-18-8-18-18v-53c0-10 8-18 18-18h20v-33c-61-8-116-32-161-67l-19 18 3 2c7 7 7 19 0 26l-26 25c-7 8-18 8-25 0l-59-58c-7-7-7-18 0-25l26-26c7-7 19-7 26 0l2 2 18-18c-43-54-68-123-68-198 0-177 144-321 321-321 177 0 321 144 321 321 0 75-26 144-69 198l18 18 3-2z m-273-461c-136 0-247 111-247 247 0 136 111 246 247 246 136 0 246-110 246-246 0-136-110-247-246-247z m-541 161c-17 0-31-15-31-32 0-18 14-32 31-32h173c4 0 7 1 10 2-8 20-15 40-20 62h-163v0z m183 233c-3 1-7 2-10 2h-271c-18 0-32-14-32-32 0-17 14-32 32-32h261c5 21 11 42 20 62z m-30-147c0 10 1 21 2 31h-209c-17 0-32-14-32-31 0-18 15-32 32-32h209c-1 10-2 21-2 32z m543 92c-6 8-17 12-26 7l-111-54c-14 5-30 5-44-3-23-14-31-44-17-67 14-23 44-31 67-18 14 9 22 22 24 37l101 71c9 6 11 18 6 27z m-135-98c-3-11-15-18-26-15-11 3-18 15-15 26 3 12 15 18 26 15 11-2 18-14 15-26z m49 128c10-5 22-2 27 8 6 9 2 22-7 27-10 6-22 2-28-8-3-6-3-14 1-20 2-2 4-5 7-7z m-71 19c12 0 20 9 20 20 0 11-9 20-20 20-11 0-20-9-20-20 0-4 1-8 3-11 3-5 10-10 17-9z m3-283v0c-11 0-20-9-20-20 0-4 1-7 3-10 3-6 10-10 17-10 11 1 20 10 20 21 0 10-9 19-20 19z m70 20c-9-6-12-18-7-27v0c6-10 18-13 28-7 9 5 13 18 7 27-6 9-18 13-28 7z m79 60c-10 5-22 2-28-8-3-7-3-14 1-20 1-3 4-6 7-7 10-6 22-2 27 7 6 10 2 22-7 28z m-292 60c0 11-9 20-20 20-11 0-20-9-20-21 0-3 1-6 3-9 4-6 10-10 17-10 12 0 21 9 20 20z m-7-63c-10-6-13-18-7-28v0c5-9 18-12 27-7 10 6 13 18 7 28-5 9-18 12-27 7z m290 66c0-4 1-7 3-10 3-6 10-10 17-10 11 0 20 9 20 20 0 11-9 20-20 20-11 0-20-9-20-20z m-292 60c10-6 22-2 28 8v0c5 9 2 21-8 27-10 5-22 2-27-8-4-6-4-14 0-20 2-3 4-5 7-7z m79 60c0 0 0 0 0 0 0 0 0 0 0 0 0 0 0 0 0 0 10 6 13 18 7 27-5 10-18 13-27 8 0 0-1 0-1-1 0 0 0 0 0 0-9-5-13-18-7-27v0c6-10 18-13 28-7z m2-244c-9 5-22 2-27-8-4-7-3-14 0-20 2-3 4-6 8-8 9-5 22-1 27 8 5 10 2 22-8 28z" horiz-adv-x="1000" />

<glyph glyph-name="route" unicode="&#xe838;" d="M764-150c-9 0-17 8-17 17 0 9 8 17 17 17h33c9 0 17-8 17-17 0-9-7-17-16-17v17l-1-17-33 0z m-68 0h-34c-9 0-17 8-17 17 0 9 8 17 17 17h34c10 0 17-8 17-17 0-9-7-17-17-17z m-102 0h-33c-10 0-17 8-17 17 0 9 7 17 17 17h33c10 0 17-8 17-17 0-9-7-17-17-17z m-101 0h-34c-10 0-17 8-17 17 0 9 7 17 17 17h34c9 0 17-8 17-17 0-9-8-17-17-17z m-102 0h-34c-9 0-17 8-17 17 0 9 8 17 17 17h34c9 0 17-8 17-17 0-9-8-17-17-17z m-102 0h-34c-9 0-16 8-16 17 0 9 7 17 16 17h34c10 0 17-8 17-17 0-9-7-17-17-17z m568 29c-4 0-8 1-11 4-7 5-8 16-3 23 6 7 10 15 12 24 2 9 11 15 20 13 9-2 15-11 13-20-3-14-10-27-18-37-3-5-8-7-13-7z m0 94c-5 0-10 3-14 7-5 7-12 12-20 16-8 5-12 15-8 23 5 9 15 12 23 8 12-6 23-15 32-26 6-8 4-18-3-24-3-2-7-4-10-4z m-93 30h-34c-9 0-17 7-17 17 0 9 8 16 17 16h34c9 0 17-7 17-16 0-10-8-17-17-17z m-102 0h-34c-9 0-17 7-17 17 0 9 8 16 17 16h34c10 0 17-7 17-16 0-10-7-17-17-17z m-100 6c-3 0-5 1-7 2-13 6-24 14-33 25-6 7-5 18 2 24 7 6 18 5 24-2 5-7 13-13 21-16 8-4 12-14 8-23-3-6-9-10-15-10z m-44 84c-1 0-2 0-3 1-9 1-15 10-13 19 2 14 8 27 16 38 6 8 16 9 24 4 7-6 9-16 3-24-5-7-8-15-10-24-2-8-9-14-17-14z m72 62c-9 0-17 7-17 16-1 10 7 18 16 18 1 0 3 0 4 0h31c9 0 16-8 16-17 0-9-7-17-16-17l-34 0c0 0 0 0 0 0z m308 0h-3c-10 0-17 8-17 17 0 9 7 17 17 17h3c8 0 16 2 23 5 9 3 19-1 22-9 4-9 0-19-9-23-11-4-23-7-36-7z m-71 0h-34c-9 0-17 8-17 17 0 9 8 17 17 17h34c9 0 17-8 17-17 0-9-8-17-17-17z m-102 0h-34c-9 0-17 8-17 17 0 9 8 17 17 17h34c10 0 17-8 17-17 0-9-7-17-17-17z m247 55c-2 0-4 0-5 1-9 2-14 12-12 21 2 5 3 11 3 16 0 4-1 7-1 10-2 9 5 18 14 19 9 2 18-5 19-14 1-5 2-10 2-15 0-9-2-17-4-26-2-7-9-12-16-12z m-36 87c-2 0-5 1-8 3-8 4-16 7-25 7-9 1-16 9-15 19 0 9 8 16 18 15 14-1 27-5 39-12 8-5 11-15 6-23-3-6-9-9-15-9z m-99 11h-34c-10 0-17 7-17 17 0 9 7 17 17 17h34c9 0 17-8 17-17 0-10-8-17-17-17z m-102 0h-34c-9 0-17 7-17 17 0 9 8 17 17 17h34c9 0 17-8 17-17 0-10-8-17-17-17z m-102 0h-34c-9 0-17 7-17 17 0 9 8 17 17 17h34c10 0 17-8 17-17 0-10-7-17-17-17z m-101 0h-7c-11 0-22 2-33 6-9 3-13 13-10 22 4 8 14 13 22 9 7-2 14-3 22-3h6c9 0 16-8 16-17 0-10-7-17-16-17z m-79 52c-7 0-14 5-16 12-3 9-5 19-5 29 0 4 1 8 1 12 1 9 9 15 19 14 9-1 16-9 15-19-1-2-1-5-1-7 0-6 1-13 3-19 3-8-2-18-11-21-1-1-3-1-5-1z m32 89c-5 0-11 3-14 8-5 8-3 18 5 23 12 8 25 12 39 14 10 1 18-6 19-15 1-10-6-18-15-19-9-1-17-4-25-9-3-1-6-2-9-2z m235 11h-34c-9 0-16 8-16 17 0 10 7 17 16 17h34c10 0 17-7 17-17 0-9-7-17-17-17z m-101 0h-34c-10 0-17 8-17 17 0 10 7 17 17 17h34c9 0 17-7 17-17 0-9-8-17-17-17z m287 345v0c-53 60-140 60-193 0v0c-54-61-54-158 0-219l96-109 97 109c54 61 54 158 0 219z m-92-175c-43 0-77 34-77 76 0 42 34 76 77 76 42 0 76-34 76-76 0-42-34-76-76-76z m-487-265c-73 82-191 82-264 0v0c-73-83-73-216 0-298l132-149 132 149c73 82 73 215 0 298z m-132-210c-47 0-85 38-85 85 0 47 38 85 85 85 47 0 85-38 85-85 0-47-38-85-85-85z" horiz-adv-x="1000" />

<glyph glyph-name="record-outline" unicode="&#xe839;" d="M313 559q-87 0-148-61t-61-148 61-147 148-62 147 62 61 147-61 148-147 61z m0 104q130 0 221-92t91-221-91-221-221-91-222 91-91 221 91 221 222 92z" horiz-adv-x="625" />

<glyph glyph-name="delivery-truck" unicode="&#xe83d;" d="M818 192c-25 0-48-9-65-27-18-17-28-40-28-64 0-25 10-48 28-65 17-17 40-27 65-27 50 0 91 41 91 92 0 50-41 91-91 91z m0-142c-28 0-52 23-52 51 0 27 24 51 52 51 27 0 50-23 50-51 0-28-23-51-50-51z m23 448c-3 3-8 5-13 5h-105c-11 0-20-9-20-20v-167c0-12 9-21 20-21h166c11 0 20 9 20 21v111c0 6-2 12-6 15l-62 56z m28-162h-125v126h76l49-44v-82z m-549-144c-24 0-47-9-65-27-17-17-27-40-27-64 0-25 10-48 27-65 18-17 41-27 65-27 51 0 91 41 91 92 0 50-40 91-91 91z m0-142c-28 0-51 23-51 51 0 27 23 51 51 51 28 0 51-23 51-51 0-28-23-51-51-51z m-135 117h-41v54c0 12-10 21-21 21-11 0-20-9-20-21v-74c0-11 9-20 20-20h62c11 0 20 9 20 20 0 11-9 20-20 20z m103 111c0 11-9 21-21 21h-247c-11 0-20-10-20-21 0-11 9-20 20-20h247c12 0 21 9 21 20z m-226 74l247-2c11 0 20 9 20 21 1 11-9 20-20 20l-247 2c0 0 0 0 0 0-11 0-20-9-20-21-1-11 9-20 20-20z m41 92h247c12 0 21 9 21 21 0 11-9 20-21 20h-247c-11 0-20-9-20-20 0-12 9-21 20-21z m890 28v0l-146 121c-4 3-8 4-13 4h-172v74c0 11-9 20-20 20h-519c-11 0-20-9-20-20v-150c0-11 9-20 20-20 11 0 21 9 21 20v129h478v-483h-167c-11 0-21-9-21-20 0-11 10-20 21-20h249c11 0 20 9 20 20 0 11-9 20-20 20h-41v389h164l133-110-2-278h-21c-11 0-20-9-20-21 0-11 9-20 20-20h41c11 0 21 9 21 20l1 309c0 6-3 12-7 16z" horiz-adv-x="1000" />

<glyph glyph-name="circular-clock-tool" unicode="&#xe83e;" d="M499 850c-275 0-499-224-499-499 0-275 224-499 499-499 275 0 499 224 499 499 0 275-224 499-499 499z m0-952c-250 0-454 203-454 453 0 250 204 454 454 454 250 0 453-204 453-454 0-250-203-453-453-453z m-154 781l-18 37-21-10 19-37c6 4 13 7 20 10z m-211-335c0 7 1 15 2 22h-52v-45h52c-1 8-2 15-2 23z m397 372v52h-46v-52c8 1 15 1 23 1 8 0 15 0 23-1z m360-201l-10 20-41-21c4-7 7-13 10-20l41 21z m-185 145c6-4 12-8 19-12l22 35-19 12-22-35z m-554-96l38-26c4 7 7 13 12 19l-37 26-13-19z m510-560l27-55 20 10-27 54c-7-3-13-6-20-9z m141 111l48-33 12 19-47 32c-4-6-8-12-13-18z m77 251c1-7 2-15 2-22 0-8-1-15-2-23h52v45h-52z m-395-395v-52h46v52c-8 0-15-1-23-1-8 0-15 1-23 1z m-216 11l19-12 33 51c-7 4-13 7-20 12l-32-51z m-144 168l10-20 50 26c-3 6-7 13-10 20l-50-26z m399 527h-32v-311-15-20l-188-206 5-5 183 201h243v45h-211z" horiz-adv-x="1000" />

<glyph glyph-name="trash-empty" unicode="&#xe842;" d="M286 439v-321q0-8-5-13t-13-5h-36q-8 0-13 5t-5 13v321q0 8 5 13t13 5h36q8 0 13-5t5-13z m143 0v-321q0-8-5-13t-13-5h-36q-8 0-13 5t-5 13v321q0 8 5 13t13 5h36q8 0 13-5t5-13z m142 0v-321q0-8-5-13t-12-5h-36q-8 0-13 5t-5 13v321q0 8 5 13t13 5h36q7 0 12-5t5-13z m72-404v529h-500v-529q0-12 4-22t8-15 6-5h464q2 0 6 5t8 15 4 22z m-375 601h250l-27 65q-4 5-9 6h-177q-6-1-10-6z m518-18v-36q0-8-5-13t-13-5h-54v-529q0-46-26-80t-63-34h-464q-37 0-63 33t-27 79v531h-53q-8 0-13 5t-5 13v36q0 8 5 13t13 5h172l39 93q9 21 31 35t44 15h178q23 0 44-15t30-35l39-93h173q8 0 13-5t5-13z" horiz-adv-x="785.7" />

<glyph glyph-name="angle-right" unicode="&#xe843;" d="M13-20l358 370-358 372q-26 26 0 48 26 26 48 0l392-394q24-26 0-50l-392-394q-22-26-48 0-26 22 0 48z" horiz-adv-x="465" />

<glyph glyph-name="angle-down" unicode="&#xe844;" d="M63 570l370-356 372 356q22 26 48 0 26-22 0-48l-396-392q-22-22-48 0l-396 392q-26 26 0 48 24 24 50 0z" horiz-adv-x="866" />

<glyph glyph-name="add" unicode="&#xe845;" d="M1000 374h-476v476h-48v-476h-476v-48h476v-476h48v476h476z" horiz-adv-x="1000" />

<glyph glyph-name="location" unicode="&#xe846;" d="M0 475q0 156 109 266t266 109 266-109 109-266q0-78-28-160t-85-166-101-141-110-133q-20-25-49-25l-4 0q-29 0-49 25-66 77-110 133t-101 141-85 166-28 160z m63 0q0-72 28-150t85-161 95-128 100-120l2 0q2-2 2-4l4 4q62 73 100 120t94 128 86 161 29 150q0 129-92 221t-221 91-221-91-91-221z m125 8q0 78 54 133t133 54 133-54 55-133-55-133-133-55-133 55-54 133z m31 0q0-65 46-111t110-45 110 45 46 111-46 110-110 46-110-46-46-110z" horiz-adv-x="750" />

<glyph glyph-name="shop" unicode="&#xe847;" d="M0 413l0 31q0 31 20 56l93 125q4 6 12 14l0 148q0 26 19 44t44 19l624 0q26 0 44-19t19-44l0-148q8-8 12-14l93-125q20-25 20-56l0-31q0-40-27-67t-67-27l0-407q0-25-18-43t-44-19l-688 0q-25 0-44 19t-18 43l0 407q-39 0-67 27t-27 67z m63 0q0-14 8-23t23-9l58 0 125 219-89 0q-16 0-26-12l-94-125q-5-9-5-19l0-31z m93-501l203 0 0 313q0 14 9 22t23 9l234 0q14 0 22-9t9-22l0-313 188 0 0 407-688 0 0-407z m32 469l130 0 63 219-68 0z m0 281l624 0 0 125-624 0 0-125z m164-281l132 0 0 219-70 0z m39-469l234 0 0 313-234 0 0-313z m125 469l132 0-62 219-70 0 0-219z m103 219l63-219 130 0-124 219-69 0z m104 0l125-219 58 0q14 0 23 9t8 23l0 31q0 10-5 19l-94 125q-10 12-26 12l-89 0z" horiz-adv-x="1000" />

<glyph glyph-name="tag-1" unicode="&#xe848;" d="M0 100l0 500q0 51 36 88t89 37l594 0q68 0 105-59l156-250q43-66 0-132l-156-250q-37-59-105-59l-594 0q-53 0-89 36t-36 89z m63 0q0-25 18-44t44-18l594 0q35 0 52 29l157 250q21 33 0 66l-157 250q-17 29-52 29l-594 0q-25 0-44-18t-18-44l0-500z m562 250q0 39 27 66t67 28 66-28 27-66-27-66-66-28-67 28-27 66z m31 0q0-25 19-44t44-18 44 18 18 44-18 44-44 19-44-19-19-44z" horiz-adv-x="1002" />

<glyph glyph-name="pencil" unicode="&#xe849;" d="M0-41q0 4 1 8t1 8 1 8 1 6l0 2 74 267q10 31 31 53l325 324 0 2 2 2 150 152q60 59 146 59 106 0 186-80 74-74 81-171t-58-161l-476-481q-24-23-55-31l-263-70-3-1q-3-1-7-2t-9-1-10-1-9-1q-45 0-77 32t-32 77z m63 0q0-19 13-33t33-14q6 0 22 4l115 32q4 58-43 105-45 45-105 43l-32-119q-3-14-3-18z m44 168q67-2 118-52t52-120l116 30 11 6q41 47 34 115t-61 121q-51 49-115 59t-112-24q-7-10-11-21z m131 225q45-2 90-20l295 295q-88 22-144-33z m119-35q38-20 65-45 21-22 41-55l297 299q-16 31-39 55-30 29-67 45z m122-129q17-41 21-82l0-24 242 245 0 2q61 60 31 156z m101 508q106 0 186-80 70-73 78-166l0-22 52 55q45 45 41 111-5 74-62 131-63 62-143 62-60 0-101-41z" horiz-adv-x="1000" />

<glyph glyph-name="user" unicode="&#xe84a;" d="M4-105q-14 43 25 70 119 78 291 116-84 105-119 255-10 55-11 122t23 149 66 138q84 105 223 105t222-105q43-57 67-138t22-149-11-122q-35-150-119-255 172-38 291-116 39-27 26-71t-61-44l-875 0q-21 0-38 13t-22 32z m60 17l875 0q-109 73-267 108l-79 16q-45-30-91-30t-92 30l-78-16q-160-35-268-108z m193 602q-13-103 16-208t96-186l10-14q56-65 123-65t123 65l9 14q67 82 96 186t16 208q-14 113-76 193t-168 80-168-80-77-193z" horiz-adv-x="1003" />

<glyph glyph-name="note" unicode="&#xe84b;" d="M0-25l0 750q0 39 27 66t67 28l656 0q25 0 45-18l187-187q18-20 18-45l0-594q0-39-27-66t-67-28l-812 0q-39 0-67 28t-27 66z m63 0q0-14 8-23t23-8l812 0q14 0 23 8t8 23l0 563-124 0q-40 0-67 27t-27 66l0 125-625 0q-14 0-23-9t-8-22l0-750z m62 78q0 16 16 16l718 0q16 0 16-16t-16-15l-718 0q-16 0-16 15z m0 94q0 16 16 16l718 0q16 0 16-16t-16-16l-718 0q-16 0-16 16z m0 94q0 15 16 15l718 0q16 0 16-15t-16-16l-718 0q-16 0-16 16z m0 93q0 16 16 16l718 0q16 0 16-16t-16-15l-718 0q-16 0-16 15z m0 110l0 187q0 14 9 23t22 8l219 0q14 0 22-8t9-23l0-187q0-14-9-23t-22-8l-219 0q-13 0-22 8t-9 23z m63 31l156 0 0 125-156 0 0-125z m281-47q0 16 15 16l375 0q16 0 16-16t-16-15l-375 0q-15 0-15 15z m0 94q0 16 15 16l157 0q15 0 15-16t-15-16l-157 0q-15 0-15 16z m0 94q0 15 15 15l157 0q15 0 15-15t-15-16l-157 0q-15 0-15 16z m281 15q0-25 19-44t43-18l125 0-187 187 0-125z" horiz-adv-x="1000" />

<glyph glyph-name="trash" unicode="&#xe84c;" d="M0 569l0 68q2 37 29 63t65 25l94 0 0 31q0 39 27 67t66 27l313 0q39 0 66-27t28-67l0-31 93 0q37 0 65-25t29-63l0-68q0-26-19-44t-44-19l0-531q0-53-36-89t-88-36l-500 0q-53 0-89 36t-36 89l0 531q-26 0-44 19t-19 44z m63 0l749 0 0 62q0 14-8 23t-23 8l-687 0q-14 0-23-8t-8-23l0-62z m62-594q0-25 19-44t44-19l500 0q25 0 43 19t19 44l0 531-625 0 0-531z m63 31l0 407q0 13 8 22t23 9l62 0q14 0 23-9t9-22l0-407q0-13-9-22t-23-9l-62 0q-14 0-23 9t-8 22z m31 0l62 0 0 407-62 0 0-407z m31 719l375 0 0 31q0 14-9 23t-22 8l-313 0q-13 0-22-8t-9-23l0-31z m125-719l0 407q0 13 9 22t22 9l63 0q13 0 22-9t9-22l0-407q0-13-9-22t-22-9l-63 0q-13 0-22 9t-9 22z m31 0l63 0 0 407-63 0 0-407z m157 0l0 407q0 13 8 22t23 9l62 0q14 0 23-9t9-22l0-407q0-13-9-22t-23-9l-62 0q-14 0-23 9t-8 22z m31 0l62 0 0 407-62 0 0-407z" horiz-adv-x="875" />

<glyph glyph-name="mail" unicode="&#xe84d;" d="M0 163l0 406q0 51 36 88t89 37l750 0q53 0 89-37t36-88l0-406q0-53-36-89t-89-36l-750 0q-53 0-89 36t-36 89z m63 0q0-26 18-44t44-19l750 0q25 0 44 19t18 44l-244 183-136-101q-26-20-57-20t-57 20l-136 101z m0 39l218 164-218 164 0-328z m0 367l244-184 27-19 129-98q16-12 37-12t37 12l400 301q0 25-18 44t-44 18l-750 0q-25 0-44-18t-18-44z m656-203l218-164 0 328z" horiz-adv-x="1000" />

<glyph glyph-name="lightbulb" unicode="&#xe84e;" d="M0 506q0 143 101 243t243 101 243-101 101-243q0-54-30-121t-71-140-56-116q-15-39-31-94t-24-82-27-53-42-39-63-11-64 11-41 39-26 53-25 82-32 94q-13 43-55 117t-72 139-29 121z m63 0q0-64 82-213 37-64 52-99l293 0q16 35 53 99 82 151 82 213 0 117-82 199t-199 82-199-82-82-199z m93 0q0 78 55 133t133 55q15 0 15-16t-15-16q-65 0-111-45t-45-111q0-15-16-15t-16 15z m67-375q11-33 19-60l213 27q2 12 10 33l-242 0z m29-90q10-35 18-60l154 19q6 16 12 38 2 5 4 15t3 12z m29-89q12-26 25-33t38-7q29 0 43 10t27 45z" horiz-adv-x="687" />

<glyph glyph-name="bookmark-empty" unicode="&#xe84f;" d="M0-56l0 906 609 0 0-1000-304 305-305-305 0 94z m63 62l242 243 242-243 0 782-484 0 0-782z" horiz-adv-x="609" />

<glyph glyph-name="view" unicode="&#xe850;" d="M866 485c-202 201-530 201-731 0l-135-135 138-138c101-101 233-151 365-151 133 0 265 50 366 151l134 135-137 138z m-21-249c-188-188-495-188-683 0l-114 114 111 111c188 188 494 188 683 0l114-114-111-111z m-361 248c-65 0-118-53-118-118 0-10 7-17 17-17 9 0 17 7 17 17 0 47 38 85 84 85 10 0 17 7 17 17 0 9-7 16-17 16z m17 85c-121 0-220-99-220-220 0-122 99-220 220-220 122 0 221 98 221 220 0 121-99 220-221 220z m0-407c-103 0-186 84-186 187 0 103 83 186 186 186 103 0 187-83 187-186 0-103-84-187-187-187z" horiz-adv-x="1000" />

<glyph glyph-name="pie-chart" unicode="&#xe851;" d="M425-150c-113 0-220 44-300 124-81 81-125 188-125 301 0 114 44 220 125 301 80 80 187 124 300 124 14 0 25-11 25-25v-375h375c14 0 25-11 25-25 0-113-44-220-124-301-81-80-187-124-301-124z m-25 799c-195-13-350-176-350-374 0-207 168-375 375-375 198 0 361 155 374 350h-374c-14 0-25 11-25 25v374z m525-299h-400c-14 0-25 11-25 25v400c0 14 11 25 25 25 114 0 220-44 301-124 80-81 124-187 124-301 0-14-11-25-25-25z m-375 50h349c-12 187-162 337-349 349v-349z" horiz-adv-x="1000" />

<glyph glyph-name="chart-bars" unicode="&#xe852;" d="M875-150h-800c-41 0-75 34-75 75v800c0 41 34 75 75 75h800c41 0 75-34 75-75v-800c0-41-34-75-75-75z m-800 900c-14 0-25-11-25-25v-800c0-14 11-25 25-25h800c14 0 25 11 25 25v800c0 14-11 25-25 25h-800z m250-750h-100c-14 0-25 11-25 25v450c0 14 11 25 25 25h100c14 0 25-11 25-25v-450c0-14-11-25-25-25z m-75 50h50v400h-50v-400z m275-50h-100c-14 0-25 11-25 25v600c0 14 11 25 25 25h100c14 0 25-11 25-25v-600c0-14-11-25-25-25z m-75 50h50v550h-50v-550z m275-50h-100c-14 0-25 11-25 25v250c0 14 11 25 25 25h100c14 0 25-11 25-25v-250c0-14-11-25-25-25z m-75 50h50v200h-50v-200z" horiz-adv-x="1000" />

<glyph glyph-name="cow" unicode="&#xe853;" d="M161 595c-12 0-22 10-22 22 0 12 10 22 22 22s22-10 22-22c0-12-9-22-22-22z m0 30c-4 0-8-4-8-8 0-9 16-9 16 0 0 4-3 8-8 8z m-76-141c-18 0-40 12-51 22-5 5-46 43-31 69 5 8 17 21 48 50 20 19 43 42 53 54 5 6 9 12 14 18 16 21 32 44 57 50 23 6 64 17 97-24 6-7 5-16-2-21-7-6-16-5-21 2-20 24-41 21-66 14-15-4-28-21-41-39-5-7-9-13-14-19-11-14-34-36-56-57-17-16-39-37-42-43 0-3 11-20 24-31 10-10 27-16 32-15 1 1 4 1 6 2 17 7 48 18 82 5 26-10 80 12 108 55 5 7 14 9 21 4 7-4 9-13 5-20-35-53-102-84-145-67-23 9-46 0-60-5-4-1-7-2-9-3-3-1-6-1-9-1z m192 152c-7 0-14 4-15 11-2 8 3 17 11 18 22 6 45 36 44 53 0 9-2 14-4 16 0 0-1-1-3-3-20-19-51-41-63-48-7-5-16-3-21 5-4 7-2 16 5 20 11 7 40 27 58 45 15 15 28 13 35 10 14-5 23-22 24-44 1-33-33-75-68-83-1 0-2 0-3 0z m511-701h-50c-5 0-9 2-12 5-3 3-4 8-3 12 3 28 10 109 6 134-3 26-10 60-15 84l-3 18c-1 4-8 15-14 25-18 31-46 78-40 128 2 9 9 15 17 13 9-1 15-8 13-17-5-39 19-79 37-109 8-15 15-25 17-35l3-17c5-25 12-59 15-86 4-26-2-93-5-125h19c1 8 1 20 2 35 2 28 4 63 3 75-1 25 1 113 4 133 2 13 14 31 35 59 12 17 24 34 32 48 18 32 27 114 14 177-12 58-61 104-122 115-36 6-64-3-91-13-19-7-38-13-58-13-42 0-123 4-163 14-39 11-102 41-123 56-7 5-9 14-4 21 5 7 14 9 21 4 19-13 79-42 114-51 35-10 112-14 155-14 15 0 30 5 48 12 29 10 62 22 106 14 73-13 132-69 147-139 13-65 6-156-17-197-9-17-22-35-35-52-11-15-28-38-29-45-3-18-4-105-3-128 0-14-2-47-3-77-2-20-3-43-3-48 1-4-1-8-4-11s-6-5-11-5z m-68 243c-5 0-10 2-13 7-12 17-70 37-128 35-37-1-76-19-96-36-7-5-16-4-22 2-5 6-4 16 2 21 26 21 71 43 115 44 58 0 132-16 154-49 5-7 3-17-4-21-2-2-5-3-8-3z m-266-243h-56c-4 0-8 2-11 5-3 3-4 8-4 12 0 1 14 106 13 141-1 38-8 82-16 99-2 6-9 16-16 26-16 23-33 49-36 70-1 8 5 16 14 17 8 1 15-5 16-14 2-13 19-38 31-56 8-12 15-22 19-31 11-23 17-74 18-110 1-29-7-97-11-129h24c1 28 3 85 9 129 2 19 4 45 7 72 6 63 10 105 15 121 3 8 11 12 19 9 8-2 13-11 10-19-4-13-10-69-14-114-2-27-5-53-7-72-7-56-9-131-9-141 0-8-6-15-15-15z m-82 241c-31 0-70 14-85 60-7 20-12 39-16 58-7 27-14 56-27 88-7 15-11 29-16 41-10 30-17 48-36 65-6 5-7 15-1 21 5 6 15 7 21 1 25-21 33-45 45-77 4-11 9-24 15-40 14-34 21-63 28-92 5-19 9-37 15-56 14-42 58-41 73-37 8 2 16-3 18-11 2-8-2-16-10-19-7-1-15-2-24-2z m574 66c-7 0-13 5-14 12-3 13-3 41-3 76 0 40-1 86-4 115-6 46-53 89-83 100-7 4-11 12-8 20 3 8 12 12 20 9 36-15 93-64 101-126 4-30 4-77 4-117 0-32 1-61 2-71 2-9-4-16-12-18-1 0-2 0-3 0z m10-142c0 0-1 0-1 0-5 1-9 3-12 7 0 1-11 19-24 48-8 17-25 60-9 88 4 8 14 19 32 21 18 3 33-1 43-11 18-17 16-48 13-73-5-44-29-73-30-74-3-4-7-6-12-6z m-3 135c-2 0-4 0-7-1-6-1-8-3-10-6-5-10-1-35 10-61 4-8 8-15 11-21 4 10 9 23 11 38 4 32 0 43-4 47-3 3-6 4-11 4z" horiz-adv-x="1000" />

<glyph glyph-name="cake" unicode="&#xe854;" d="M1000 668c0 1 0 1 0 2 0 0-1 1-1 2-1 2-3 5-5 7-1 1-1 1-2 2-1 0-2 1-3 1-1 1-2 1-3 1-1 0-2 0-3 0 0 0 0 0 0 0 0 0 0 0-1 0l-582-36c-2 51-35 95-83 112 2 12 7 22 14 31 17 19 43 29 69 27 9 0 17 7 17 16s-8 17-17 17c-43 0-75-13-96-39-10-13-17-28-20-45-3 0-6 1-9 1-62 0-114-45-123-106-17 14-38 22-60 22-41 0-77-27-88-67-3-2-4-6-4-10v-558c0-109 97-198 217-198 1 0 2 0 3 1 3-1 6-1 8 0l760 241c1 0 1 1 1 1 1 0 2 1 3 1 4 2 6 6 7 10 1 1 1 2 1 3 0 1 0 1 0 1v559c0 0 0 1 0 1z m-808 13c15 32 48 52 83 52 2 0 4 0 5 0 0-12 1-25 4-37 2-7 8-13 16-13 1 0 3 1 4 1 9 2 14 11 12 20 0 0 0 0 0 0-1 7-2 14-2 21 46-22 65-76 44-122-22-46-77-65-122-44-46 22-65 76-44 122z m8-797c-93 8-167 78-167 164v450c38-56 100-92 167-97v-517z m14 549c-95 2-176 76-180 166 0 1 0 3 1 4 5 27 29 47 57 47 25 0 47-16 55-40 2-5 6-8 10-10 23-65 95-99 160-76 40 14 70 48 80 89l457 29-376-122c0-1 0-1 0-1-1 0-3-1-3-2-4-1-7-5-7-9-1-1-1-2-1-4 0 0 0 0 0 0v-87c0-9-8-17-17-17s-17 8-17 17v65c0 9-7 17-16 17-9 0-17-8-17-17v-415c0-9-7-17-17-17s-16 8-16 17v393c-1 2-1 4-1 5 0 1 0 1 0 1-1 1-1 2-2 3-1 2-2 3-4 4-2 2-4 3-6 3-1 0-2 1-3 1-1 0-1 0-1 0-1 0-2 0-3-1 0 0-1 0-2 0l-131-43z m19-293v65l100 32v-65l-100-32z m100-3v-65l-100-32v65l100 32z m-100 103v165l100 32v-165l-100-32z m734-120l-734-233v118l108 35c15-23 46-30 69-15 15 9 23 25 23 42v3l534 174v-124z m0 159l-534-174v65l534 174v-65z m0 100l-534-174v65l534 174v-65z m0 100l-534-174v65c6-2 11-3 17-3 28 0 50 22 50 50v75l467 152v-165z" horiz-adv-x="1000" />

<glyph glyph-name="vegetable-1" unicode="&#xe855;" d="M993 482c-25 13-54 19-81 17 9 22 11 49-6 64-24 22-55 12-82-1-10 19-21 38-24 58-2 13-20 13-25 4-11-17-25-29-39-41-17 22-43 49-71 37-3-2-5-3-8-5-33 48-79 46-120 2-46 67-114 79-162 8-59 41-124 31-111-50-34-2-62-35-79-63-19 20-48 43-74 34-28-9-36-37-37-65-20 2-42 2-60 10-7 3-14-4-14-11 0-23 1-46 15-65 8-10 23-13 36-14-3-4-6-8-9-13-12-24-3-51 10-71 9-14 31-1 22 13-15 23-18 59 18 63 13 2 25-3 34-13 14-15 11-38 9-56-27-2-52-6-75-17-1 0-1-1-1-2-3 4-6 8-8 12-6 10-20 3-18-7 35-202 279-283 456-283 201 0 415 103 485 301 6 19-15 29-29 22-4 4-10 5-17 4-10-1-19-2-28-4 23 44 49 80 93 107 9 6 10 20 0 25z m-624 115c6-6 15-5 20 3 37 61 102 46 135-11 5-9 16-7 22 0 46 30 77 32 95 7-10-22-6-53 0-76 1-4 3-6 6-6-6-6-12-11-17-19-8 14-16 27-19 41-3 9-16 14-22 6-19-24-41-40-57-65-20 18-48 39-72 28-32-14-23-52-15-79 3-7 13-4 12 4-12 27-1 44 33 50 14-7 26-17 37-29 5-4 14-4 18 3 11 22 31 37 48 54 7-15 17-30 25-45 5-8 18-8 23 0 12 25 29 48 60 50 41 2 37-52 32-77-86 33-222-21-187-140-3-1-7-1-11-1-25 49-59 114-104 125 7 27 3 59-12 82-19 30-56 27-86 16-10 27-25 50-54 56 1 50 56 54 90 23z m-97-288c-37 7-76 14-112 15 3 20 0 41-9 59 1 0 1 0 1 1 33 15 67 23 104 14 21-5 36-17 50-32-17-11-30-27-35-50 0-3 0-5 1-7z m-117 86c11 44 61 45 100 36 35-8 63-27 86-53-4-1-9-2-13-3-41 52-115 50-173 20z m140-86c5 17 15 29 29 36 2-3 3-5 5-7 7-9 19 2 15 11-1 0-1 1-1 1 14 2 29 0 43-3 12-18 24-37 36-56-19 1-39 2-58 4-22 2-46 6-71 10 1 2 2 3 2 4z m113 34c1 0 1 0 1 0 12-1 15 16 6 21-8 6-18 9-27 12-2 3-4 6-7 9 7 5 13 8 19 11-1-10 12-11 17-4 2 2 4 5 6 8 17-1 33-14 48-36 16-22 27-47 39-71-25-2-50-2-76-2-9 18-17 35-26 52z m-318 75c-5 0-9-1-14-2 0 0 0 0 0 0-11 3-23 5-34 9-17 5-19 25-20 42 20-3 40 0 60-7 6-2 12 4 12 10 3 21 5 59 35 53 21-4 38-25 53-40 9-10 22 4 15 15 35 52 99 84 116 0 1-6 10-11 16-9 31 13 65 20 77-21 5-16 1-32-2-49-13-3-27-11-42-24-57 65-213 105-220 3-12 14-30 23-52 20z m832-107c-79-163-256-238-433-242-186-5-328 78-425 228 0 0 0 0 1 0 42 9 106-11 147-18 57-9 113-18 170-25 183-21 360 31 540 57z m-275 70c38 4 66-28 77-61-40-7-80-13-120-18 0 0 0 1 0 2-6 33 3 72 43 77z m220-33c0-1 0-2 0-3-41-7-82-14-122-21 0 1 0 1 0 2-15 45-55 86-106 76-50-10-63-58-47-101 0 0 0 0 0 0-10-2-19-3-29-4-15 63 22 110 84 123 63 13 109-21 129-79 3-12 22-10 22 3-1 36-18 62-42 79 1 1 1 1 1 1 23 88-43 133-98 99 0 1 0 1 0 2-2 16-4 33 0 48 8-1 17 8 12 18-1 2-1 3-2 4 18 17 51-32 54-37 5-7 14-8 20-3 13 11 26 21 37 33 8-18 18-35 26-52 3-7 13-8 19-5 12 7 54 32 63 6 5-13-1-30-4-45-10-4-19-9-28-16-40-32-59-84-43-133 1-6 11-5 10 1-4 80 57 144 132 122-40-30-71-70-88-118z" horiz-adv-x="1000" />

<glyph glyph-name="vegetable" unicode="&#xe856;" d="M945 502c2 67-38 128-100 155-9 57-55 102-113 110 0 6-2 11-3 17-10 35-41 61-77 65-22 3-45-3-63-15-16 10-35 16-54 16-50 0-91-37-98-84-2-1-4-1-5-2-2 4-4 8-6 12-25 50-70 79-111 73-28-5-50-23-63-51-24 11-49 13-71 5-24-8-42-26-53-51-15-34-15-77 0-118-20-13-34-32-42-57-14-40-10-89 13-134 2-5 5-10 8-15-21-13-37-33-45-58-14-39-8-85 16-126 11-19 25-36 42-50-6-23-2-49 12-72 19-33 54-55 90-58 57-107 128-153 237-200l1 0c15-10 33-14 50-14 10 0 20 2 30 4 0 0 0 0 0 0 0 0 1 0 1 0 8 3 15 6 22 10 33 19 47 52 35 86-33 97-30 169 8 216 66 80 220 60 221 60l18-3 2 18c0 3 5 59-27 97-2 2-4 4-6 6 9 2 18 5 27 9 62 26 103 84 104 149z m-697-413l-5 9-11 0c0 0 0 0 0 0-27 0-55 17-70 42-11 18-13 38-6 54l5 13-11 8c-17 12-31 28-42 47-19 32-23 67-13 97 7 22 22 38 43 47l21 9-13 17c-6 9-12 18-16 26-18 36-22 77-11 108 7 21 20 36 38 45l15 7-7 15-1 2c-15 36-17 74-4 103 5 11 15 26 33 32 17 6 38 2 58-12l20-13 6 23c8 26 23 43 43 46 26 5 57-18 75-54 2-3 3-6 4-9 0 0 0 0-1 0-3-2-7-5-10-7-2-2-4-3-6-5-1-1-2-2-4-3-7-6-13-13-18-21 0 0-1-1-1-2-3-4-6-9-8-14-1-1-2-2-2-3-1-3-2-5-3-7-1-3-2-6-3-8-1-2-1-4-2-7-1-3-1-7-2-11 0-1 0-3-1-4 0-5-1-10-1-15 0-3 1-6 1-9-66-12-115-69-115-138 0-20 4-40 12-58-18-20-29-46-29-73 0-41 24-78 60-96 0-10 0-19 1-27 0-3 0-6 0-9 0-6 1-12 1-18 1-3 1-6 1-9 1-6 1-11 2-16 1-3 1-6 2-10 0-4 1-9 2-14 1-3 1-6 2-10 1-4 2-9 4-14 0-3 1-6 2-9 1-5 3-9 4-14 1-3 2-5 3-8 2-6 4-11 6-17 1-2 1-3 2-5 3-7 6-14 9-21 1-2 2-4 3-6 3-5 5-10 8-15 1-3 3-6 4-8 3-5 5-9 8-13 1-3 3-6 5-9 2-4 5-8 7-12 2-3 4-6 6-9 3-4 6-8 9-12 2-3 4-6 6-9 3-4 6-8 9-12 2-3 5-6 7-9 3-5 7-9 10-13 2-3 4-6 7-9 0 0 0 0 0 0-64 35-109 79-148 156z m503 290l-5 1-17-4-2-39 18-1c21-1 37-8 48-21 14-16 18-38 19-53-47 3-169 3-233-74-46-57-51-140-14-249 9-25-8-39-19-45-1 0-2-1-3-1-34 83-55 158-66 224 0 0 0 1 0 1-9 53-12 100-11 142 25 42 96 44 97 44 9 0 17 8 17 17 0 10-8 17-17 17 0 0-1 0-1 0-2 0-52-1-91-25 5 34 13 64 22 92 1 1 2 2 3 3 1 3 1 5 1 7 13 32 28 58 43 80 78 16 137-8 138-9 3-1 5-1 7-1 7 0 13 4 16 10 4 9 0 19-9 23-2 1-50 22-119 16 34 36 63 52 68 54 25 12 62-4 74-11 3-1 6-2 9-2 6 0 11 3 15 8 5 9 2 19-6 24-2 1-41 24-81 19 3 14 11 27 14 32 6 8 5 19-3 25-7 5-18 4-24-4-1-1-24-31-24-66-25-15-91-62-136-157-3-5-5-10-8-16-47 33-39 90-39 93 2 10-5 18-14 20-10 2-18-5-20-14-5-32 2-97 61-132-13-38-23-83-26-137 0-1 0-3 0-5-2-37 0-79 6-125-22 13-32 30-33 31-5 9-15 12-23 8-9-5-12-15-8-24 1-2 22-40 70-55 12-64 32-136 64-215-11 0-22 3-31 9l0 0c-2 1-3 2-5 3-2 2-4 3-5 5 0 0 0 0-1 0l-7 9c-109 125-163 216-159 370l1 12-12 4c-29 11-49 38-49 69 0 22 10 42 27 56l11 9-7 13c-10 16-14 35-14 53 0 57 44 103 101 105l21 1-5 21c-2 7-3 14-3 20 0 6 1 11 2 16 0 1 0 3 1 4 0 4 2 8 3 11 0 1 1 3 1 4 2 4 4 8 7 12 0 1 0 1 0 1 6 9 13 16 21 23 1 1 2 1 4 2 2 2 5 4 8 5 2 1 4 2 6 3 9 4 19 7 29 8l16 1v16l0 2c1 35 30 63 65 63 16 0 31-6 43-17l12-11 12 12c12 12 29 18 46 16 22-3 41-19 47-41 3-7 3-14 2-21l-1-20h19c51 0 93-39 97-90l1-11 11-4c53-19 88-69 87-126-1-50-34-96-83-117-25-11-50-13-77-6z" horiz-adv-x="1000" />

<glyph glyph-name="fish" unicode="&#xe857;" d="M932 441c-44 39-102 72-165 94 0 0 0 0 0 0 0 0 0 0 0 0-29 10-59 18-89 23-18 21-76 83-178 107-16 4-34 0-47-11-14-11-22-27-22-44v-81c-95-42-170-110-211-152-6 31-19 69-49 99-56 56-147 54-151 54-11-1-20-10-20-21 0-4-2-94 54-150 14-14 30-25 46-32-16-8-32-18-46-32-56-56-54-147-54-151 0-11 9-20 20-20 1 0 2 0 4 0 17 0 96 3 147 54 30 29 43 69 49 100 30-31 78-76 140-114v-74c0-18 8-34 22-45 10-8 22-11 34-11 6 0 11 0 17 2 51 15 89 43 107 58 17-3 35-4 51-4 58 0 116 10 172 29 0 0 0 0 0 0 131 44 237 138 237 209 0 33-24 73-68 113z m-848-53c-29 29-38 73-41 98 26-2 69-11 98-40 29-29 38-71 41-97-26 2-69 10-98 39z m57-181c-29-28-72-37-98-40 3 26 12 69 41 98 29 29 72 38 98 40-3-25-12-68-41-98z m332 403c0 4 2 8 6 11 2 2 6 4 12 3 53-12 93-37 120-59-7 0-13 0-20 0-38 0-78-6-118-19v64z m-52-534c-5-1-10 0-13 3-2 1-6 5-6 11v50c28-14 56-26 83-34-17-11-39-22-64-30z m170 56c-17 0-35 2-53 5-48 8-97 27-146 57-78 47-137 107-160 134 30 33 117 122 228 168 0 0 0 0 1 0 44 18 88 27 130 27 24 0 48-2 72-5 18-3 37-7 55-12-45-47-73-116-73-183 0-61 27-127 70-175-41-10-82-16-124-16z m169 31c-44 39-73 102-73 160 0 63 31 131 76 169 121-46 195-125 195-164 0-40-75-120-198-165z m78 190c-11 0-21-9-21-21v-9c0-12 10-21 21-21 12 0 21 9 21 21v9c0 12-9 21-21 21z m-218 116c-9 8-22 8-30 0-2-2-4-5-6-7-7-9-6-22 3-30 4-3 8-5 13-5 6 0 12 3 16 8 2 1 3 3 5 5 8 8 7 21-1 29z m-3-258c-23 27-37 68-37 113 0 25 5 49 13 70 4 11-1 24-12 28-11 4-23-2-27-12-10-27-16-56-16-86 0-55 17-106 47-140 5-5 11-8 16-8 5 0 10 2 14 6 9 7 10 21 2 29z" horiz-adv-x="1000" />

<glyph glyph-name="deer" unicode="&#xe858;" d="M947 430c-20 17-42 24-51 27-14 13-29 25-46 34-60 33-129 22-191 14-22-4-42-7-60-7-9-1-16-8-15-18 0-9 8-16 17-15 19 0 40 4 63 7 56 8 120 17 170-10 15-8 29-18 40-30 0 0 1-1 2-2 15-17 26-36 32-59 9-33 8-72-4-109-16-52-26-65-27-66-5-6-6-14-2-21l37-57-67-203h-23l51 176c2 6 0 13-5 17-11 10-26 24-42 41 0 1-1 2-3 3-52 56-112 140-87 193 4 8 1 18-8 22-8 4-18 1-22-8-16-34-11-77 16-127-8 0-16-1-26-2-24-3-57-8-106-4-94 7-129 29-129 29-4 4-10 4-15 2-5-2-9-6-10-11l-34-137c-2-9 3-18 12-20 2-1 3-1 4-1 8 0 15 5 16 13l29 117c7-3 15-6 26-9l-32-97c-1-2-1-4-1-5v-192h-21v134c0 10-8 17-17 17s-16-7-16-17v-134h-15v309c0 4-2 8-5 12-1 0-17 17-37 38 2 56-21 106-37 136h1c6 0 11 3 14 8s3 11 1 16l-51 94c12 13 17 30 19 42 1 9-5 17-14 19-9 1-17-5-19-14 0-4-7-38-39-38 0 0 0 0 0 0-39 0-108 0-135 0l-13 30 59 21c6 2 10 7 11 13 0 1 3 17 16 32 15 17 38 25 68 23-3-7-6-15-8-23-2-9 4-18 13-20 9-2 18 4 20 13 2 11 13 45 49 53-1-17-5-41-15-54-6-7-5-18 2-23 3-3 7-4 11-4 4 0 8 2 11 5l63-117c3-6 10-9 17-8 1 0 101 14 160-8 2 0 4 0 6 0 7 0 13 4 15 10 3 9-1 19-10 22-55 19-135 13-164 10l-69 127c7 27 6 55 6 60 0 2 0 4-1 6h65c0 0 0 0 0 0 0 0 0 0 0 0h13c29 0 58 10 80 27 27 22 42 44 44 68 1 9-6 17-15 18-9 1-17-6-18-15-2-18-18-34-31-44-7-6-15-10-24-14 15 23 23 47 24 51 3 9-2 18-10 21-9 3-18-2-21-11 0 0-5-16-14-33-10-18-21-30-31-35h-14c11 17 15 36 15 49 1 9-7 16-16 16-9 0-16-7-17-16 0-2-1-39-36-49h-17c-4 0-8-1-11-4l-48-42c-1-2-2-3-3-4-1 0-1 0-2 0l-8 21c8 2 18 5 27 9 35 16 53 41 51 71-1 9-9 16-18 15-9-1-16-8-15-18 0-5 1-21-27-35 9 24 7 45 7 46-1 9-9 16-18 15-9-1-16-9-15-18 0-2 3-33-21-56h-28c-8 6-17 31-19 59-1 9-9 16-18 15-9-1-16-9-15-18 0-8 3-34 13-56h-26c-8 11-17 38-21 60-2 9-11 15-20 14-9-2-15-11-13-20 1-7 6-32 16-53-21 2-39 18-43 39-1 7-1 14 0 21 1 9-5 17-14 19-10 1-18-5-19-14-2-11-1-21 1-32 7-39 41-67 81-67h25c0 0 0 0 0 0 0 0 0 0 0 0h67c0 0 0 0 0 0 0 0 0 0 0 0h28l6-16c-68-4-91-51-97-73l-69-24c-4-2-7-5-9-9-2-5-2-9 0-14l26-56c3-6 9-9 15-9 1 0 52 0 98 0 14-38 57-150 84-183 26-31 80-87 96-104v-318c0-9 8-17 17-17h48 54c9 0 17 8 17 17v205l32 98c19-4 41-7 67-9 31-2 55-2 76 0 9-21 30-68 43-91l-49-199c-1-5 0-11 3-15 3-4 8-6 13-6h65c8 0 14 5 16 13l44 187 17 30c9-9 17-17 23-21l-55-188c-1-5 0-10 3-14 3-4 8-7 13-7h57c8 0 14 5 16 12l73 221c1 4 1 10-2 14l-35 55c7 13 17 37 27 68 5 17 9 35 10 53 12-9 23-11 31-11 7 0 11 1 12 2 6 2 10 8 11 14 3 63-27 100-53 120z m-665-88c-19 24-54 111-73 162 3 0 7 0 10 0 0 0 1 0 1 0 10 0 18 1 26 4l35-65h-4c-6 0-12-4-15-10-3-5-2-12 2-17 0-1 35-46 45-104-10 11-20 22-27 30z m487-246c-1-1-1-3-2-4l-41-177h-31l46 186c1 4 0 9-2 13-10 15-29 57-41 83 1 0 2 0 3 0 22 3 34 4 43 0 5-7 10-13 15-20 11-14 23-28 33-40l-23-41z m176 265c0 1 0 2-1 2-1 6-2 11-4 17-1 6-3 12-6 18 20-18 30-40 33-67-6 4-14 13-22 30z m-770 268c-8-1-15-8-16-16-2-13 9-24 22-22 8 2 15 8 16 16 2 13-9 24-22 22z" horiz-adv-x="1000" />

<glyph glyph-name="sheep" unicode="&#xe859;" d="M889 643h-14c-5 29-30 51-60 51-11 0-21-3-30-8-14 13-33 20-53 20-24 0-46-10-61-28-9 4-20 6-30 6-4 0-8 0-11-1-14 13-33 20-53 20-18 0-36-6-50-18-21 16-47 25-74 25-22 0-42-6-61-16-13 10-30 16-48 16-28 0-54-15-68-40-14 6-28 8-42 8-39 0-75-18-98-48-7 2-15 3-22 2-9 7-20 11-31 11-11 0-22-4-31-11-29-1-52-25-52-55 0-28 21-51 49-54-1 0-1-1-1-2-24-23-39-55-39-89 0-28 10-54 27-76-4-12-6-25-6-38 0-60 44-111 103-120 4-4 9-8 14-11v-17c0-34 18-63 46-77v-87c0-9 7-16 16-16h49c9 0 16 7 16 16v87c1 1 3 1 4 2 2-1 3-1 4-2v-87c0-9 8-16 16-16h50c8 0 15 7 15 16v87c12 6 23 15 31 26 16-8 35-12 53-12 23 0 45 6 64 17 8-13 20-24 34-31v-87c0-9 7-16 16-16h49c9 0 16 7 16 16v87c1 0 3 1 4 2 1-1 3-1 4-2v-87c0-9 7-16 16-16h49c9 0 16 7 16 16v87c28 14 47 43 47 77v3c38 21 65 61 65 108 0 4 0 8-1 12 17 15 26 36 26 58 0 20-7 39-20 53 0 6-1 12-1 17h58c61 0 111 50 111 111 0 61-50 111-111 111z m-647-621h-17v61c3 0 6 0 9 0s5 0 8 0v-61z m90 0h0-18v61c3 0 6 0 9 0 3 0 6 0 9 0v-61z m-9 92c-7 0-13 2-20 4 4 5 7 10 10 15 3 0 7 0 11 0 10 0 19 1 29 5h11c1-1 2-1 3-2-11-13-27-22-44-22z m271-92h-18v61c3 0 6 0 9 0 3 0 6 0 9 0v-61z m89 0h0-17v61c3 0 6 0 9 0 3 0 6 0 8 0v-61z m-8 92c-7 0-14 2-20 4 8 11 14 24 16 38 4 1 9 3 13 5 7-1 14-2 21-2 8 0 16 1 24 3-4-27-27-48-54-48z m126 199c-6-4-8-10-7-16 1-5 1-11 1-16 0-50-40-90-90-90-7 0-13 1-20 2-3 1-7 0-10-1-8-4-16-7-24-10-6-2-10-8-11-14-1-30-25-54-55-54-24 0-45 16-52 38-2 5-6 9-11 11-5 1-10 0-14-3-18-14-38-21-61-21-25 0-48 9-67 26-2 3-6 5-10 5h-21c-2 0-4-1-6-2-11-5-24-5-35-1-4 2-9 1-13-1-4-2-7-6-8-10-6-24-28-42-53-42-31 0-56 25-56 56v25c0 5-2 10-7 13-7 5-15 11-21 16-3 3-6 4-9 4-45 6-80 44-80 90 0 12 3 24 8 35 2 6 1 13-3 17-16 17-25 39-25 62 0 27 12 52 33 70 3 3 6 7 6 12 0 7 1 14 5 21 3 6 2 13-3 18-4 5-12 6-18 4-3-2-6-3-9-3-13 0-23 11-23 23 0 13 10 23 23 23 0 0 1 0 2 0 5 0 11 2 14 6 3 4 7 6 12 6 5 0 9-3 12-7 4-6 12-8 19-6 7 3 14 2 20-2 3-2 8-3 12-2 4 1 8 4 10 7 16 28 46 44 78 44 15 0 29-3 42-10 5-3 10-3 14-1 4 2 8 5 9 10 6 20 25 33 45 33 14 0 26-5 35-15 6-6 15-7 21-2 16 11 34 17 53 17 24 0 46-9 64-26 3-3 7-5 12-5 4 1 8 3 11 6 9 12 23 18 37 18 14 0 27-5 36-16 4-4 10-6 16-4 4 1 8 1 12 1 5 0 10-1 15-3-2-7-3-14-3-22 0-9 7-16 16-16 9 0 16 7 16 16 0 8 2 16 5 23 9 15 25 25 42 25 15 0 29-7 38-20 3-3 7-6 12-6 4 0 9 1 12 5 6 5 13 8 21 8 16 0 29-13 29-29 0-1 0-2 0-3 0-1 0-1 0-1-2-15-14-25-29-25-6 0-13 2-18 6-3 2-8 3-13 2-4-1-8-3-10-8-3-5-7-9-11-13-7-5-8-14-4-21 10-15 15-32 15-49 0-5 0-10-1-14-2-10-5-19-9-27-3-7-1-15 4-20 8-5 12-14 12-23 0-8 7-16 15-16h4c1-8 1-16 2-24 0-4 1-8 5-11 9-9 15-21 15-35 0-15-8-30-20-38z m88 140h-80c-2 9-6 17-12 23 3 9 6 17 7 26 1 6 2 13 2 19 0 19-5 38-13 55l0 0c7-3 14-4 22-4 26 0 48 16 57 39h17c44 0 79-35 79-79 0-43-35-79-79-79z m-43 115c-7 0-12-5-12-12s5-12 12-12c6 0 11 5 11 12 0 7-5 12-11 12z m-122-11c-8 0-16-7-16-16v-51c0-8 8-15 16-15s16 7 16 15v51c0 9-7 16-16 16z" horiz-adv-x="1000" />

<glyph glyph-name="pig" unicode="&#xe85b;" d="M256 471c-12 0-22-10-22-22 0-12 10-21 22-21s21 9 21 21c0 12-9 22-21 22z m612 20c-38 46-95 72-155 72-10 0-19-9-19-20 0-10 9-19 19-19 49 0 94-21 126-58 4-4 9-7 15-7 4 0 9 2 12 5 9 7 9 19 2 27z m33-51c0 0-1 0-1 1-1 2-3 4-5 6-5 5-13 6-20 3-2 0-3-1-4-2-2-2-4-4-5-6-2-3-3-6-3-10 0-2 1-5 2-8 0 0 0 0 0 0 1-2 3-5 5-6 3-4 8-6 13-6 3 0 5 1 8 2 10 5 14 16 10 26z m77 136c14 15 22 33 22 54 0 20-8 39-22 53-25 25-66 25-91 0-21-21-22-53-2-75 12-14 34-17 51-9 15 8 22 24 19 41-3 10-13 17-24 15-9-3-16-12-15-21-1 0-2 0-2 0-6 7-6 15 1 21 10 10 26 10 35 0 7-7 11-16 11-25s-4-19-11-26c-12-12-28-17-45-14-38 28-84 44-134 44h-287c-1 0-1 0-2 0-88-6-165 32-176 38-25 18-54 27-82 26-39-2-69-25-82-63-2-6-1-12 2-17 4-6 10-9 16-9 1 0 1 0 1 0 13 0 25-3 34-8l-42-54c-27-35-62-64-101-83l-13-6c-9-2-22-9-30-33-6-16-9-36-9-57 0-22 3-42 9-57 9-26 23-32 32-34l182-59c15-5 28-9 44-10l22-1 6-59-12-71c-12-13-23-37-29-51-3-6-2-13 1-19 4-5 10-9 16-9h178c11 0 19 9 20 20 0 0 2 69 40 128 27-5 55-8 83-8 37 0 68 2 96 7v-70c-11-13-22-35-28-49-2-6-2-13 2-19 4-5 10-9 16-9h187c10 0 18 8 19 18 7 55 32 207 64 245 0 0 0 0 0 1l12 15c0 0 0 0 0 1 26 38 40 82 40 127 0 58-22 110-56 150 12 4 24 11 34 21z m-933-251c-3 9-6 23-6 43 0 19 3 33 6 42 3-9 6-23 6-42 0-20-3-34-6-43z m386-287h-25c4 29 12 83 30 128 10-4 21-8 33-11-26-45-35-92-38-117z m312 0h-33c3 6 7 11 9 13 5 3 8 9 8 16v88c7 3 14 5 21 8l16-90c-8-10-15-24-21-35z m217 367c0-37-11-74-32-105l-11-15c-38-47-62-195-69-247h-61 0c4 6 7 11 9 13 6 4 10 12 8 19l-29 160c-2 11-12 18-23 16-10-2-17-12-15-23l3-20c-44-22-85-26-148-26-49 0-97 8-139 24 2 3 4 6 6 9 7 9 5 21-4 27-9 7-21 5-27-4-42-56-57-155-61-195h-27-37c3 6 7 11 9 13 4 2 7 7 8 12l14 81c0 2 0 4 0 6l-7 77c-1 9-9 17-18 17l-39 3c-13 1-22 3-35 8l-156 51c1 1 2 3 2 5 6 15 9 35 9 57 0 21-3 41-9 57-1 3-2 6-3 8 41 22 78 53 106 90l40 52c12-18 16-36 17-37 2-10 10-16 19-16 1 0 3 0 4 1 11 2 17 13 15 23 0 1-6 26-23 51-17 24-38 41-64 48 10 10 23 14 34 14 17 1 38-5 57-19 0 0 1-1 2-1 15-11 28-27 37-47 5-9 17-14 26-9 10 5 14 16 10 26 0 0-1 1-1 1 30-9 67-16 107-16 7 0 14 0 20 1h287c104 0 189-85 189-190z" horiz-adv-x="1000" />

<glyph glyph-name="chicken" unicode="&#xe85c;" d="M729-126c-15 0-31 6-47 12l-2 1c-17 6-35 13-53 13-1 0-2 0-3 0h0c-7 0-13-3-19-6-7-3-16-7-25-7-3 0-6 1-9 1l-9 2 2 9c2 9 7 15 12 19l0 0c-4 1-8 2-14 2-12 0-27-3-41-5-13-3-30-7-45-7-2 0-5 0-8 1l-12 1 4 11c6 15 27 20 48 23 10 2 21 4 26 8 1 19-5 32-10 46-4 9-9 19-11 31-17 60-68 75-118 90-38 11-73 21-94 49-8 11-13 22-17 33-7 15-13 29-27 41l-4 3 0 5c0 1 0 2 0 4v1c0 4 0 9 2 14-24 25-51 59-45 80l-7 11c-3 3-87 69-101 94-3 6-2 10 0 13 4 6 12 6 15 6 14 0 40-6 65-13-15 6-31 12-45 18l-1 0 0 0c-26 9-49 19-58 26-17 14-23 25-19 34 3 9 13 12 22 12-53 23-81 45-82 65-3 48 115 79 128 82 11 3 19 11 27 18 9 9 18 18 33 20 3 0 5 0 8 0 44 0 77-50 100-87l1-1c4-7 8-14 12-19 11-8 23-19 36-29l4-3c59-49 139-115 215-115 5 0 10 1 16 1 56 0 80 61 101 114l0 1c10 24 18 46 29 60 30 39 64 78 118 89-6 59-1 66 2 68 2 3 5 4 8 4 8 0 13-8 16-15 9-19 17-28 24-28h2c0 2 0 5 0 7v2c1 16 2 43 27 43h6l3-6c4-10 7-27 8-41 8 4 16 8 23 8 7 0 12-4 14-10l0-2c0-11-4-50-12-67 4-6 12-13 20-20 17-14 35-30 34-57l-1-14-13 6c-5 3-11 5-16 5-12 0-24-8-36-15l0-1c-5-3-10-6-15-9 5-13 11-24 16-36l1-1c16-33 32-64 27-118-17-175-79-266-191-278-18-10-34-33-50-56-22-34-47-72-89-79 4-40 19-69 43-88 6-1 14-3 24-6 17-5 41-12 61-12 4 0 8 0 11 1 3 0 4 2 7 9 3 8 8 20 24 20h21l-14-15c0 0 0-2 0-3v0c1-4 2-10-1-15 1 0 2-1 3-1 6-2 14-4 19-11l6-7-8-5c-11-10-32-11-48-11-6 0-11 0-17 1h-2c-5 0-10 0-14 0-2 0-3 0-4 0l27-8-28-9c-6-2-11-2-16-2z m-102 44c22 0 43-8 61-15 13-5 26-10 36-11 0 2-1 4-1 6 1 5 4 11 12 12 3 1 8 1 14 1 5 0 9 0 14 0h2c6 0 11-1 17-1 5 0 12 0 18 1-4 2-9 5-12 9-3-4-7-6-12-7-4 0-9-1-14-1-24 0-52 8-67 13-7 2-17 5-20 5l-3-1-3 2c-32 23-50 61-54 111l-1 10 9 0c39 2 62 38 85 72 18 27 35 52 59 64l2 1c103 10 161 96 177 261 4 49-10 77-26 108l0 1c-7 14-14 29-20 47l-3 8 9 3c6 2 12 6 19 10l1 1 0 0c13 8 28 18 46 18 3 0 6-1 10-1-5 11-16 20-26 30-11 9-21 18-26 30l-2 5 4 5c3 3 9 33 10 53-4-2-9-5-12-7-7-4-11-6-14-7l-17-4 6 16c2 4 0 22-4 38-2-4-3-12-3-22-1-12-1-21-7-25l-7-7-4 6h-2c-10 0-21 2-35 26 1-12 2-28 4-43l1-9-9-1c-53-9-84-45-115-85-9-12-18-33-26-55v0c-22-56-49-126-117-126-5-1-11-1-17-1-83 0-166 69-227 119l-1 0-3 3c-13 11-26 21-36 29l-3 3c-5 6-9 14-14 22l-1 1c-21 33-50 78-85 78-2 0-3 0-5 0-9-1-15-7-23-14-9-9-18-19-34-23-48-12-117-40-115-63 1-25 101-65 168-85l3-1-5-17-4 1c-14 4-64 17-91 17-5 0-8-1-9-1 1-2 4-6 12-13 7-6 29-14 52-23l1 0c39-15 83-32 98-50l3-5-1-6c-2-3-6-5-11-5-5 0-17 3-42 10h0c-23 6-50 13-66 16 19-23 67-63 92-82l1-2 15-22-4-5c-6-7 31-56 49-71l35-30-41 14c0-1 0-2 0-3 16-15 23-30 29-45 4-11 9-20 15-30 18-23 50-32 85-43h0c18-4 37-10 55-18l0 2 4 0c1 0 4-1 6-1 49 0 118 57 145 97 37 58 20 107-1 164-4 12-8 23-12 35l-1 3 17 5 1-3c4-12 8-24 12-34 22-59 41-115-1-181-28-43-90-94-143-103 25-17 41-40 49-69 2-11 6-19 10-28 7-16 14-33 12-59l-1-3-2-3c-2-1-3-2-5-3 6 0 11 1 16 1 13 0 24-3 33-9l7-4-4-8c-2-3-5-7-7-10 1 1 3 2 5 3l1 0c7 4 15 7 26 8 1 0 2 0 4 0z m-554 614c0 0 0 0 0 0h-1 1z m793 132c-13 0-24 11-24 25s11 24 24 24 25-11 25-24c0-14-11-25-25-25z m0 31c-3 0-6-3-6-6s3-7 6-7 7 3 7 7-3 6-7 6z m44 130l3-4c4-11 8-29 8-43 9 5 16 9 24 9 6 0 11-3 13-10l0-2c0-10-4-50-11-66 3-6 11-13 19-20 17-15 35-31 34-57l0-12-12 5c-5 3-11 5-16 5-13 0-25-8-37-16l-1 2 0-2c-5-3-10-6-15-9 4-14 11-26 16-38l-1-1 0 0c-6 12-13 25-18 40 6 2 12 6 18 10 12 7 24 15 38 15 6 0 12-1 17-5l9-4 0 9c2 25-17 42-33 56l0 0c-8 7-17 14-20 22 7 15 12 56 11 66v1c-1 6-6 9-11 9-7 0-16-5-24-10l-1-1c0 15-4 35-9 46l-2 4h-4c-22 0-23-25-23-40 0-4-1-9-1-12h-1-3c-4 0-13 0-27 29-4 9-8 14-13 14-3 0-5-1-6-3-5-6-5-28-1-69-55-10-89-49-119-89-11-14-20-36-29-59-21-54-45-116-103-116-6-1-11-1-17-1-77 0-158 67-217 116-14 12-28 23-40 32-4 6-8 13-13 20-23 37-55 86-98 86-2 0-4 0-7 0-13-2-23-11-31-19-8-8-16-15-28-19-13-3-129-32-126-78 2-25 51-51 97-70-4 1-8 1-12 1-9 0-21-1-24-10-3-8 2-17 18-31 8-7 31-16 57-26 26-9 56-21 76-33-6 1-13 3-20 5-28 8-60 18-76 18-5 0-10-1-13-6-1-1-2-5 1-10 13-23 91-86 100-93l8-13c-8-21 29-63 45-80-3-4-2-9-2-14 0-2 0-4 0-5l-1-4 2-2c16-12 22-27 28-41 5-11 10-22 18-33 20-27 55-37 92-48 51-14 103-30 120-92 3-11 7-21 11-30 6-15 12-29 10-49-5-4-18-7-29-8-20-4-40-8-45-22l-3-7 8-1c3-1 5-1 8-1 14 0 29 3 44 6 14 3 29 6 41 6 8 0 14-1 20-4-1-1-2-2-4-3-4-5-8-10-10-18l-2-6 6-2c2 0 5-1 7-1 9 0 17 4 24 7 7 4 13 7 21 7 1 0 2 0 3 0 19 0 38-8 56-15 16-6 32-12 46-12 5 0 9 0 14 1l18 6-18 6c-1 0-4 3-5 5 3 1 6 1 10 1 4 0 9 0 14-1 7 0 13 0 19 0 16 0 35 1 46 9l5 4-3 5c-4 5-11 8-17 10-3 1-5 1-8 3 5 5 4 11 3 16 0 2 0 5 0 5l9 11h-14c-14 0-18-11-21-19-3-7-5-10-9-11-3 0-8-1-12-1-21 0-44 7-62 12-10 4-19 5-23 6-26 20-42 51-46 94 42 5 67 43 90 77 16 25 32 48 52 58 110 12 171 102 188 275 5 53-10 84-26 117l2 1c16-33 31-65 26-118-17-174-79-265-190-277-19-9-34-33-51-57-22-33-47-72-89-78 4-41 19-71 44-90 5-1 14-3 24-6 17-5 41-12 61-12 4 0 8 1 12 1 3 1 4 3 7 10 4 7 8 19 23 19h18l-11-13c0-1 0-3 0-4 1-4 2-10-2-15 2-1 3-1 5-2 6-2 14-4 18-10l5-7-6-4c-12-9-31-11-48-11-6 0-11 0-17 1h-2c-5 0-10 0-14 0-2 0-5 0-6 0 0-1 1-2 2-2l24-7-25-8c-4-1-9-2-14-2l0 0c-15 0-30 6-47 13l-1 0c-17 7-35 14-54 14-1 0-2 0-3 0-8 0-13-3-20-6-7-4-15-7-25-7-2 0-5 0-8 1l-7 1 2 8c2 9 6 14 11 19 0 0 1 1 1 1-4 2-9 2-16 2-12 0-28-3-41-5-15-3-30-6-44-6-3 0-6 0-8 0l-10 1 3 10c6 15 27 19 47 23 11 2 22 4 28 8 1 20-5 33-11 47-4 9-8 19-10 31-18 61-69 76-120 90-37 11-72 21-93 49-8 11-13 22-17 33-6 15-13 29-27 41l-4 3 1 4c0 2 0 3 0 5v0c-1 4-1 10 2 14-21 22-52 59-45 80l-8 12c-10 8-87 70-100 94-3 6-2 9-1 12 4 6 12 6 15 6 15 0 47-9 76-17l1 0 2-1c-18 8-40 17-60 24v2l0-1c-26 9-48 18-57 26-16 13-22 23-19 32 4 10 17 11 27 11h0c-57 25-87 47-88 68-3 47 114 77 127 80 12 3 20 11 27 19 10 8 19 17 33 19 2 1 4 1 7 1 44 0 76-51 99-87l1-1c4-7 8-14 12-19 11-9 24-20 38-31l2-2c59-48 139-115 216-115 5 0 10 1 16 1 57 0 81 61 102 115l0 1c10 23 18 45 29 59 30 39 64 78 119 90-7 59-1 66 1 68 2 2 4 3 7 3 7 0 12-7 15-15 14-28 22-28 25-28h3c0 3 0 7 0 9v1c1 15 2 41 26 41l5 0m-2-3l1-3c4-11 9-30 9-45v-3l3 1 1 1c8 5 16 10 23 10 5 0 8-2 9-7v-1c0-11-4-51-11-65l-1-1 1-1c4-8 12-15 21-23 16-14 34-29 32-54l0-6-6 3c-6 3-12 5-18 5-14 0-27-9-39-16l0-1c-6-4-12-7-18-10l-1-1 0-2c6-14 12-27 18-39l1-1c15-32 31-63 26-115-17-173-78-262-187-273h0c-21-11-36-34-53-59-22-33-48-71-89-77l-2 0v-2c5-43 20-75 47-95l0-1h1c4 0 13-2 23-6 18-5 42-12 63-12 4 0 8 1 12 1 5 1 7 6 10 12 3 8 7 18 20 18h9l-6-7c-1-2-1-4 0-8 0-4 1-9-3-14l-1-2 2-1c3-1 5-2 7-3 6-2 13-3 17-9l2-3-3-3c-10-8-29-9-45-9-6 0-11 0-17 1h-2c-5 0-10 0-14 0s-8 0-10 0l-3-1 1-2c1-3 4-5 5-6l13-4-13-4c-4-2-8-2-12-2-14 0-30 6-46 12l-1 1c-18 7-36 14-55 14l0 0c-1 0-2 0-4 0-7-1-14-3-21-7s-14-7-23-7c-2 0-5 1-7 1l-4 1 1 4c2 8 6 13 10 17 1 2 2 3 3 4l2 2-3 1c-5 2-11 3-19 3-13 0-29-3-42-5-15-3-30-6-44-6-3 0-5 0-8 1l-6 0 2 5c5 13 25 17 44 20 11 3 24 5 30 9l1 0v1c1 22-5 36-11 50-4 10-8 19-10 31-18 63-71 78-122 93-36 11-71 21-91 48-8 10-12 21-17 32-6 15-12 29-28 42l-2 2 1 2c0 1 0 3 0 5v1c-1 4-1 9 2 12l1 2-1 1c-13 13-53 58-45 78l0 1-8 14-1 1c-3 2-86 69-100 92-2 4-1 6 0 8 2 4 7 4 11 4 15 0 46-8 74-17l2 0c7-2 13-4 19-5l13-4-11 7c-20 12-50 24-76 34h-1c-25 9-48 18-56 25-15 13-20 21-17 28 2 8 14 9 22 9 4 0 7 0 12-1l13-1-12 5c-63 26-97 49-98 69-3 45 119 75 125 76 12 4 21 12 29 20 8 8 17 17 30 18 3 0 5 0 7 0 41 0 73-49 96-85l0 0c5-8 9-14 13-20l1-1c11-8 24-19 37-30l3-2c59-49 140-116 218-116 6 0 11 0 17 1 59 0 84 63 105 118l1 0c9 23 17 45 28 58 30 39 63 78 118 89l2 0-1 2c-6 51-3 64 0 67 1 1 3 2 5 2 4 0 7-5 11-13 15-30 25-30 29-30l0 0h5v1c1 3 1 8 1 12v1c1 20 3 38 22 38l2 0m-25-63l-2 3h-4c-10 0-22 4-36 35l-3 7v-8c-1-12 1-34 3-57l1-4-4 0c-55-8-88-46-119-86-10-13-18-35-27-57-21-55-48-123-112-123-5 0-11-1-17-1-81 0-164 68-224 118l0 1c-14 12-28 23-40 32l0 1c-5 6-10 13-14 21l-1 1c-22 34-52 81-89 81-2 0-4 0-5 0-11-2-18-8-26-17-8-8-18-17-32-21-34-8-121-36-119-68 2-32 121-75 169-89l-2-7c-13 3-64 16-93 16-11 0-14-3-15-3l-3-4h3c1-3 5-8 15-16 8-6 31-15 55-24 38-15 81-30 95-49l1-2-1-3c0-1-2-3-5-3-5 0-19 4-41 11h0c-27 7-60 16-74 16h-4l2-3c15-20 70-66 97-88l1-1 12-19-2-3c-10-12 38-68 50-78l15-13-18 7h-1l-2 0v-2c0-2 0-3 0-5s0-3 0-4v-1l0-1c16-14 22-29 29-44 4-11 8-20 16-30 18-25 51-34 86-45 19-5 40-11 59-20l2-1 1 4c1 0 3 0 4 0 52 0 122 58 150 100 38 60 21 110 0 168-4 11-8 22-12 34l8 2c4-12 8-22 12-33 20-58 40-112-1-176-30-45-97-97-148-102l-6-1 6-3c27-16 45-39 54-70 1-11 5-20 9-29 7-16 14-32 12-57v-1l-1-1c-7-7-21-10-36-13-9-1-18-3-25-6l-14-5 15 1c10 1 21 4 32 6l-1 2 0 0 2-2c14 3 29 5 42 5 13 0 22-2 31-8l3-2-2-3c-2-4-5-7-8-11-2-2-4-4-5-6l-2-3 4 0c6 1 12 4 17 6 7 3 14 7 24 7 1 0 2 0 3 0 21 0 42-8 60-15 16-6 30-11 43-11h3l0 0-2 3c-1 2-2 6-2 8 0 1 1 6 8 7 2 0 7 1 13 1 4 0 8 0 14-1h0c6 0 12 0 19 0 8 0 21 0 31 3l6 2-6 2c-1 1-2 1-4 2-7 2-13 4-17 10l-3 4 5 2c5 2 5 4 4 10l-1 7-3-5c-1-1-2-4-3-7l-2-3-1-3-2-2c-2-5-6-8-12-8-3-1-8-1-12-1-24 0-51 8-66 13-10 2-18 5-21 5l0 0-2-1-1 1c-31 22-49 59-52 108l-1 4 4 0c40 3 65 39 89 75 17 26 33 50 56 61l2 1c105 10 164 98 180 266 5 50-10 80-25 111l-1 1c-6 14-14 29-19 46l-2 3 4 1c6 2 13 7 21 11l0 1c13 8 27 17 44 17 4 0 9-1 13-2l3-1 0 4c-3 15-16 27-29 38-11 9-20 18-25 28l-1 3 2 2c6 5 11 44 12 61v2l-2 0c-4-1-11-5-19-9-6-4-9-6-12-7l-8-1 3 7c3 6 0 29-5 46l0 2-2-1c-7-3-9-12-10-30 0-10 0-18-4-22l-6-2m19 52c5-17 7-39 5-45l-4-10 11 2c3 1 7 3 13 7 5 4 14 8 17 9 0-18-7-55-11-60l-2-3 1-3c4-11 15-20 25-29 13-11 25-22 29-37-5 1-10 2-14 2l0 0c-18 0-32-9-45-17l-1 1c13 8 28 18 46 18 3 0 7 0 11-1-4 12-15 22-27 32-10 10-21 19-25 30l-2 5 3 4c3 4 10 37 10 56-4-2-10-5-14-8-7-4-10-6-14-7l-14-3 5 14c2 4 0 24-5 41-3-4-4-12-5-25 0-12-1-20-6-25l-6-5-4 4h-2c-10 0-22 4-36 30 0-12 2-30 4-48l1-8-8-1c-53-8-85-44-116-84-9-12-18-34-27-56-21-56-49-126-115-126-5 0-11-1-17-1-83 0-166 69-226 119l-1 1c-14 12-28 23-39 32l-2 1c-5 7-10 14-14 22l-1 1c-21 34-50 79-85 79-2 0-4 0-5 0-10-1-16-8-24-15-8-9-18-18-34-22-49-12-117-40-116-64 1-27 99-67 168-87l2-1-4-15-2 1c-3 0-62 17-93 17-6 0-9-1-11-2 1-2 4-6 14-14 6-6 29-15 53-24 38-14 82-31 97-50l3-4-2-5c-1-2-3-5-9-5-5 0-18 3-41 10h-1c-24 7-53 15-68 16 17-21 68-63 94-84l1-2 14-21-4-5c-6-7 32-58 49-73l31-26-36 13v-2c0-1 0-2 0-4 15-14 22-29 28-44 4-11 9-20 16-30 18-23 50-33 85-43 18-5 38-11 56-19l1 3h2c2 0 4-1 6-1 50 0 119 57 146 98 38 58 20 108-1 165-3 11-8 23-12 35l0 2 15 5 0-2c4-12 9-24 12-35 21-59 41-114-1-179-29-45-94-96-145-104 25-17 42-40 51-70 2-10 6-19 10-28 6-16 14-32 11-58v-3l-2-2c-2-3-6-5-10-6 8 1 15 2 22 2 14 0 24-3 33-9l6-4-4-6c-2-4-5-8-8-11l-2-2c4 1 7 3 11 4 7 4 15 7 26 8 1 0 2 0 3 0l0 0c22 0 43-8 61-15 14-6 27-11 38-12-1 3-1 5-1 8 0 5 3 10 11 10 2 1 7 1 13 1 5 0 10 0 14 0h1c6 0 12-1 18-1 6 0 16 0 23 2-6 2-13 5-17 11-3-5-7-7-13-8-4 0-8-1-13-1-24 0-52 8-67 13-8 2-17 5-21 5l-3 0-3 1c-31 24-49 61-53 111l-1 8 9 1c38 2 62 37 85 72 18 26 35 52 58 63l3 1c103 10 161 96 177 263 5 49-10 78-25 108l0 1c-8 14-15 29-21 46l-2 8 8 2c5 2 12 7 19 11l2-2 0 0c-7-4-14-9-20-11l-6-2 2-5c5-18 13-33 20-47 15-32 30-60 25-110-15-167-74-254-178-265l-2 0c-23-11-40-36-58-62-23-35-47-71-86-74l-6 0 0-7c4-49 22-86 53-109l2-1 3 0c3 0 12-2 21-5 18-5 44-12 66-12 5 0 9 0 13 1 7 1 11 4 14 9l1-3c5-6 12-9 19-11 1 0 3-1 4-1-9-3-21-4-31-4-6 0-12 0-18 1-5 0-10 0-14 0-6 0-11 0-14-1-6-1-9-5-9-9 0-3 1-6 3-9-12 0-27 5-42 11-19 7-39 16-61 16h-4c-9-1-17-5-24-8-6-3-11-5-17-6 2 2 4 4 6 6 3 4 6 7 8 11l2 5-4 3c-8 6-19 8-31 8-14 0-29-3-44-6h0l0 0 0 0c-11-2-22-4-32-5 7 3 17 4 25 6 16 3 30 6 37 13l1 2v1c3 26-5 42-11 58-4 9-8 18-10 28-10 36-30 57-55 72 54 6 121 60 149 103 42 65 22 119 1 178-3 11-8 23-12 35l-11-4c4-12 9-23 12-35 21-58 39-108 1-167-28-42-98-98-148-98-3 0-5 0-7 0l0-3c-19 9-39 15-59 20-34 10-68 20-86 44-7 10-11 20-15 30-7 15-14 30-29 44 0 2 0 3 0 5s0 3 0 4h1l28-10-23 20c-14 13-58 66-49 76l3 3-13 20-1 2c-23 18-82 66-97 88l0 0c14 0 47-10 73-17 23-7 36-10 42-10 4 0 6 2 7 3l1 5-2 3c-15 18-58 34-97 49-24 9-47 17-54 24-14 12-14 16-14 16s2 3 13 3c32 0 93-17 93-17l4 11c-66 21-169 62-171 89-2 27 71 55 117 66 15 4 25 14 33 22 8 8 15 14 25 16 2 0 4 0 6 0 36 0 66-46 88-81 5-8 9-15 14-21l1-2c12-8 26-20 41-32 60-50 142-119 224-119 6 0 12 1 17 1 66 0 93 69 114 124 9 23 17 44 27 57 31 40 64 77 118 85l5 1 0 6c-3 24-5 45-4 57v0c15-32 28-37 38-37h3l3-3 5 3c4 5 5 13 5 24 0 16 1 26 8 28m-36-99c14 0 24-11 24-23 0-13-11-24-24-24-13 0-23 11-23 24 0 12 10 23 23 23m0-45c12 0 22 10 22 22s-10 21-22 21-21-10-21-21c0-13 9-22 21-22m0 41c11 0 20-9 20-19s-9-20-20-20-19 9-19 20 9 19 19 19m0-31c7 0 12 5 12 12 0 6-5 11-12 11-6 0-11-5-11-11s5-12 11-12m0 21c6 0 10-5 10-10s-4-10-10-10-9 5-9 10 4 10 9 10m0-17c4 0 8 3 8 7 0 4-3 7-8 7-4 0-7-3-7-7 0-4 3-7 7-7m61-56l0 0 0 0 0 0m7-60l0 0 0 0 0 0m-138-624v-1c1-6 1-7-3-9l-1 0 1 3c1 3 2 5 3 7m116 887h-2-5c-26 0-27-29-28-44v-1-2c0-2 0-4 0-5h-1c-7 0-14 9-23 27-2 6-7 16-16 16-4 0-7-2-10-5s-8-9-1-68c-55-11-89-50-119-89-10-14-19-36-29-60l0 0 0 0 0 0c-21-54-44-113-100-114l0 0 0 0c-5 0-10-1-15-1-76 0-156 66-214 115l-3 2-1 0c-13 11-25 21-36 29-4 6-9 13-13 19l0 1c-24 37-57 88-102 88-3 0-5 0-7 0-15-2-25-11-34-20-7-8-15-15-26-18-22-6-133-35-129-83 1-20 27-42 80-65-9-1-16-4-19-12-4-10 2-21 19-35 9-8 32-16 58-26l0 0 1-1c9-3 19-7 28-11-18 5-36 9-47 9-3 0-12 0-16-7-2-2-4-7 0-14 14-25 95-89 102-94l6-11c-5-21 21-54 45-80-2-4-2-10-1-14v0-1c0-1 0-3 0-3l-1-5v-1l1-1 4-3c14-12 20-25 26-40v-1c4-10 9-22 18-33 21-29 57-39 94-50 50-14 101-29 118-89 2-12 7-22 11-30l2 0-2-1c5-13 11-26 10-45-6-3-16-5-25-7-22-3-43-8-49-24l-4-10-1-3 3 0 10-1c3-1 6-1 9-1 15 0 31 4 45 7 13 2 28 5 40 5 5 0 8-1 12-1-4-4-9-10-11-18l-2-8 0-2 2-1 8-2c2 0 5-1 9-1 10 0 18 4 26 7 6 3 12 6 18 6h1c1 0 2 0 3 0 17 0 35-7 52-13l1-1c17-7 33-12 48-12 5 0 10 1 15 2l25 8 7 2-7 3-16 4c3 0 6 0 10 0h2c6 0 11-1 17-1 16 0 37 1 49 11l6 5 2 1-1 2-5 7c-6 6-14 9-20 11 0 0-1 1-2 1 2 5 2 11 1 14v0c0 1 0 2 0 2l11 13 3 4h-5-18c-17 0-22-14-25-21-3-7-4-8-6-9-3 0-7 0-11 0-20 0-44 6-61 12-10 2-18 5-24 5-23 19-38 48-42 86 42 8 67 46 89 79v0c16 24 31 47 49 56 112 13 174 104 191 279 6 54-10 86-27 119l-1 2 0 0c-5 11-10 22-15 34 5 3 9 6 14 9l1 0 0 0c0 0 0 1 1 1l2-2-2 2c11 7 22 14 34 14 5 0 11-1 16-4l11-6 3-2v4l1 12c1 28-18 45-35 59-7 7-14 13-18 19 7 17 11 56 11 66l0 0 0 0 0 2 0 0 0 0c-2 7-8 11-16 11-7 0-14-3-21-7-1 14-5 30-9 39l0 0 0 0-2 5v4l0 0z m-30-78l2 1 7 6c6 5 6 14 7 26 0 6 1 13 2 18 3-15 4-30 3-33l-5-14-2-5 5 1 14 4c4 1 8 3 15 7 3 2 6 4 10 6-1-21-7-48-9-51l-4-4-1-1 1-1 2-5c5-12 15-21 26-31 10-9 20-17 25-27-3 0-5 0-8 0-18 0-33-9-45-17l0 0-2-1c-7-5-13-9-18-10l-8-3-3 0 1-3 3-7c6-18 13-33 20-47l0-1c1-1 1-1 1-2l0-1 1 1c15-30 28-58 24-105-16-165-74-250-176-261l0 0 0 0-2-1 0 0 0 0c-24-11-41-37-60-63-22-34-46-70-83-72l-8 0h-3v-2l1-9c4-51 22-88 54-112l3-2 1 0h1l3 0c2 0 12-3 19-5h0c12-3 31-9 50-11-4 0-7-1-9-1-9-1-13-8-13-13 0-2 0-4 0-5-10 1-21 6-33 11-19 7-40 15-62 15-2 0-3 0-4 0-11 0-19-4-27-8l-1 0h0c1 2 3 4 4 6l3 6 1 2-2 2-6 3c-9 7-20 10-34 10-3 0-7 0-11-1 0 1 0 1 1 1l2 2 0 0v1 3c2 27-5 44-12 60-4 8-7 17-9 27-8 29-24 51-47 68 52 11 113 61 141 104 42 66 22 122 1 181-4 11-8 23-12 35l0 2-1 2-3-1-15-5-2-1 0-2 1-2c4-12 8-24 12-36 20-56 38-105 1-163-27-40-95-96-144-96-2 0-5 0-6 1h-2l-3 0v-2c-17 8-36 13-53 18h0c-35 10-67 19-84 42-7 10-11 19-16 29v1c-6 14-13 30-28 45v0l33-11 12-4-9 8-31 27c-21 18-53 64-49 69l3 5 1 1-1 2-14 21 0 0 0 0-1 2 0 0 0 0c-24 18-70 57-90 79 16-3 41-10 62-16h0 1c24-6 36-10 42-10 5 0 9 3 11 6l0 0 0 0 1 6 1 1-1 1-3 4c-15 19-59 36-98 51l-1 0c-23 9-45 17-51 23-7 5-10 8-11 11 1 0 3 0 7 0 27 0 76-13 91-16h0l2-1 3 0 0 2 5 15 0 2-2 1-2 0c-38 11-79 27-109 41-49 23-58 36-58 42-1 10 12 22 37 34 22 11 50 21 77 27 16 5 26 14 35 24 7 7 14 13 22 14 2 0 3 1 5 1 34 0 63-46 83-79l1-1c5-8 9-15 14-22l0 0 0 0 2-1 0 0 0 0c10-8 23-18 36-29l3-3 1 0c60-51 144-120 227-120 7 0 13 0 18 1 68 0 96 70 117 126v1c9 22 17 43 26 55 31 39 63 76 115 84l8 1 2 0 0 2-1 8c-2 14-3 27-4 38 13-20 24-22 33-22h2l3-4 2-1 0 0z m-108-838c1 0 1 0 2 0 5 1 9 3 13 6 2-2 5-4 8-6-6 0-11 0-15 0-3-1-6 0-8 0l0 0z m92 802c-13 0-25-11-25-25s12-26 25-26c14 0 26 12 26 26s-12 25-26 25l0 0z m0-31c-2 0-5 3-5 5 0 3 3 5 5 5s6-3 6-5c-1-2-3-5-6-5l0 0z" horiz-adv-x="1000" />

<glyph glyph-name="cook-hat" unicode="&#xe85d;" d="M912 737c-56 56-132 87-212 87-74 0-145-27-200-77-55 50-126 77-201 77-80 0-155-31-211-87-117-117-117-307 0-424l36-36v-385c0-9 7-16 16-16h720c9 0 16 7 16 16v385l36 36c117 117 117 307 0 424z m-757-829v32h689v-32h-689z m735 428l-41-41c-3-3-5-7-5-11v-312h-689v312c0 4-1 8-4 11l-41 41c-104 104-104 274 0 378 51 51 118 79 189 79 67 0 129-24 178-68l-79-79c-6-6-6-16 0-22 3-3 8-5 12-5 4 0 8 2 11 5l89 89 1 1 0 0c51 51 118 79 189 79 72 0 139-28 190-79 104-104 104-274 0-378z m-94-36h-93l58 139c3 9-1 18-9 21-8 4-17 0-21-8l-63-152h-152v146c0 8-7 16-16 16-9 0-16-8-16-16v-146h-152l-64 152c-3 8-12 12-20 8-9-3-12-12-9-21l58-139h-94c-8 0-16-7-16-16 0-9 8-16 16-16h593c9 0 16 7 16 16 0 9-7 16-16 16z" horiz-adv-x="1000" />

<glyph glyph-name="icon-2" unicode="&#xe85e;" d="M390 844h268c25-49 46-99 70-148a262 262 0 0 1-66-30c-35-22-66-48-97-73-12 30-25 61-38 92-1 1-3 5-4 1-29-62-53-127-76-191-1-4-4-6-7-8-39-32-78-65-117-97-13-10-30-12-45-12q-48 0-96 0 97 236 208 466z m285-218a197 197 0 0 0 115 36 163 163 0 0 0 107-36 109 109 0 0 0 27-32c-8-11-18-21-25-32 10-8 22-12 34-16-6-42-15-83-26-124-17-65-39-130-74-187-33-48-93-71-149-70q-53 0-106 0c25 18 48 38 68 61 31 36 55 78 74 122l-3 4c-2 1-4 1-5 1-45-48-99-89-161-111-43-17-89-24-134-24-41 0-82 0-123 0-6 0-12-1-19 1-4 5 2 10 5 14a1837 1837 0 0 0 184 212c31 32 65 62 98 92 36 31 74 61 113 89z m116-35c-23-8-35-36-26-58 6-16 24-28 41-28 15 0 29 8 37 20 12 18 9 44-8 57-11 12-29 14-44 9z m95-344c3 4 4 8 7 11 53-135 105-270 151-408q-119 0-237 0-43 119-85 238c36 18 71 38 100 66 27 27 47 59 64 93z m-799-144c78 0 156 0 234 0-27-84-54-169-81-253q-120 0-240 0v2c28 84 56 168 87 251z m704 488c15 5 33 3 45-9 16-13 19-39 7-57-8-12-22-20-36-20-18-1-35 12-42 28-9 22 3 50 26 58z m24-7c-12-4-16-20-8-30 5-8 15-9 23-7 10 3 16 15 12 25-3 11-17 17-27 12z m84-23c7 12 17 22 25 33 30-1 59 0 89-1 6 1 7-9 1-10-27-13-54-26-81-38-12 5-24 9-34 16z m-552-203c72 59 143 119 215 179-33-30-66-60-98-92a1837 1837 0 0 1-184-212c-3-4-8-9-5-14 7-2 13-1 19-1 41 0 82 0 123 0 45 0 91 7 134 23 62 23 116 64 161 112 1 0 3-1 5-1-34-61-83-115-143-152-70-42-153-57-233-56h-229a6 6 0 0 0-7 5 21 21 0 0 0 5 7c20 20 40 40 60 61-35 0-70 9-99 29a154 154 0 0 0-53 66c-3 8-6 16-7 24a119 119 0 0 0 22 1h255a96 96 0 0 1 59 21z m337-193c56-1 116 22 149 70-28-47-71-84-121-106-47-21-99-31-150-31 29-83 59-166 89-248-19 0-38 0-56 0q-49 135-97 271c-3 5 2 7 6 9a366 366 0 0 1 60 27c4 3 9 6 14 8q53 0 106 0z m-59-103a422 422 0 0 1 52 10c27-74 53-148 80-222-19 0-37 0-56 0-10 27-19 54-29 81-16 44-31 87-47 131z m190 522c10 5 24-1 27-12 4-10-2-22-12-25-8-2-18-1-23 7-8 10-4 26 8 30z m141 123a89 89 0 0 0-19 2l-26-16 0 26c-20 12-33 32-33 54 0 36 35 66 78 66s77-30 77-66-35-66-77-66z m0 143c-49 0-89-35-89-77 0-24 13-46 33-60v-39l39 23a101 101 0 0 1 17-1c48 0 88 34 88 77s-40 77-88 77z m38-61h-77a6 6 0 0 1 0-11h77a6 6 0 1 1 0 11z m-11-33h-55a6 6 0 1 1 0-11h55a6 6 0 0 1 0 11z" horiz-adv-x="1044" />

<glyph glyph-name="icon" unicode="&#xe85f;" d="M392 850h271c24-49 46-99 69-149a264 264 0 0 1-66-30c-35-21-66-48-97-73-13 31-25 62-39 92 0 2-3 6-3 2-29-63-54-128-77-193-1-3-4-6-7-8-39-32-79-65-118-97-13-11-30-12-45-13q-49 0-97 0 98 238 209 469z m287-219a199 199 0 0 0 116 37 164 164 0 0 0 107-37 109 109 0 0 0 28-32c-8-11-18-21-25-33 10-7 22-11 34-16-6-42-15-83-26-124-17-66-39-131-75-189-33-47-93-71-150-70q-53 0-107 0c26 18 49 38 69 62 31 36 56 78 74 122l-2 4c-2 1-4 1-6 1-45-48-99-89-161-112-44-16-90-23-136-24-41 0-82 0-123 0-6 0-13 0-19 1-4 5 2 10 5 14a1849 1849 0 0 0 185 214c32 32 65 62 99 92 36 32 74 62 113 90z m117-35c-23-8-35-36-26-58 7-17 24-29 42-28 15-1 29 7 37 19 12 18 9 45-8 58-11 12-30 14-45 9z m96-346c2 3 4 8 7 11 53-136 106-272 152-411q-120 0-239 0-43 120-85 240c36 17 71 38 100 66 28 27 48 60 65 94z m-804-145c78-1 156 0 235 0-27-85-55-170-82-255q-120 0-241 0v2c28 84 57 169 88 253z m708 491c15 5 34 3 45-9 17-13 20-40 8-58-8-12-22-20-37-19-18-1-35 11-42 28-9 22 3 50 26 58z m24-7c-12-4-16-21-8-31 5-7 15-9 23-7 10 4 17 16 13 26-4 11-17 17-28 12z m85-23c7 12 17 22 25 33 30-1 60 0 89-1 7 1 8-9 2-10-27-13-55-26-82-38-12 5-24 9-34 16z m-555-205c72 60 143 120 216 180-34-30-67-60-99-92a1849 1849 0 0 1-185-214c-3-4-9-9-5-14 6-1 13-1 19-1 41 0 82 0 123 0 46 1 93 7 136 24 62 23 116 64 161 112 2 0 4 0 6-1-35-61-84-116-144-152-70-43-154-59-235-57h-230a6 6 0 0 0-7 5 21 21 0 0 0 5 7c20 20 40 41 60 62-35 0-70 8-99 28a155 155 0 0 0-54 67c-3 8-6 16-7 24a119 119 0 0 0 22 1h257a97 97 0 0 1 60 21z m338-194c57-1 117 23 150 70-28-47-71-84-121-106-47-21-99-31-151-32 29-83 59-166 89-249-19 0-37 0-56 0q-49 136-98 273c-3 4 3 7 6 8a369 369 0 0 1 60 28c5 3 9 6 14 8q54 0 107 0z m-59-104a425 425 0 0 1 53 10c26-74 53-149 80-223-19 0-38 0-56 0-11 27-20 55-30 82-15 43-31 87-47 131z m191 526c11 5 24-1 28-12 3-10-3-22-13-26-8-2-18 0-23 7-8 10-4 27 8 31z" horiz-adv-x="1050" />

<glyph glyph-name="download-1" unicode="&#xe860;" d="M743 368c-10 9-26 9-36 0l-207-208v565c0 14-11 25-25 25-14 0-25-11-25-25v-565l-207 208c-10 9-26 9-36 0-9-10-9-26 0-36l250-250c5-5 12-7 18-7 6 0 13 2 18 7l250 250c10 10 10 26 0 36z m132-468h-800c-41 0-75 34-75 75v100c0 14 11 25 25 25 14 0 25-11 25-25v-100c0-14 11-25 25-25h800c14 0 25 11 25 25v100c0 14 11 25 25 25 14 0 25-11 25-25v-100c0-41-34-75-75-75z" horiz-adv-x="1000" />

<glyph glyph-name="edit-task" unicode="&#xe861;" d="M937 212l-84 83c-6 7-17 7-23 0l-333-333c-4-3-5-8-5-12v-83c0-10 7-17 16-17h84c4 0 8 2 11 5l250 250c0 0 0 0 0 0 1 0 1 0 1 0l83 83c6 7 6 17 0 24z m-352-329h-60v60l233 233 60-59-233-234z m257 257l-60 60 60 60 59-60-59-60z m-434-257h-291c-14 0-25 12-25 25v784c0 13 11 25 25 25h108v-17c0-9 8-17 17-17h366c10 0 17 8 17 17v17h108c14 0 25-12 25-25v-359c0-9 8-16 17-16 9 0 17 7 17 16v359c0 32-26 58-59 58h-110c-7 38-41 67-81 67h-59c-12 20-34 33-58 33-24 0-46-13-57-33h-60c-40 0-74-29-81-67h-110c-32 0-59-26-59-58v-784c0-32 27-58 59-58h291c10 0 17 7 17 17 0 9-7 16-17 16z m-100 900h70c7 0 13 5 16 11 5 14 17 23 31 23 14 0 27-9 31-23 3-6 9-11 16-11h70c27 0 50-22 50-50v-16h-334v16c0 28 23 50 50 50z" horiz-adv-x="1000" />

<glyph glyph-name="doc-text" unicode="&#xe862;" d="M649 850h-541v-1000h784v757l-243 243z m9-57l177-176h-177v176z m-516-910v934h483v-234h233v-700h-716z m133 684h150c9 0 17 7 17 16 0 10-8 17-17 17h-150c-9 0-17-7-17-17 0-9 8-16 17-16z m283-334h-283c-9 0-17-7-17-16 0-9 8-17 17-17h283c10 0 17 8 17 17 0 9-7 16-17 16z m167 117h-117c-9 0-16-7-16-17 0-9 7-16 16-16h117c9 0 17 7 17 16 0 10-8 17-17 17z m-450 83h83c10 0 17 8 17 17 0 9-7 17-17 17h-83c-9 0-17-8-17-17 0-9 8-17 17-17z m250 0h117c9 0 16 8 16 17 0 9-7 17-16 17h-117c-9 0-17-8-17-17 0-9 8-17 17-17z m-100 17c0-4 2-9 5-12 3-3 7-5 12-5 4 0 8 2 12 5 3 3 4 8 4 12 0 4-1 9-4 12-7 6-18 6-24 0-3-3-5-8-5-12z m-67-100c-9 0-16-7-16-17 0-9 7-16 16-16h167c9 0 17 7 17 16 0 10-8 17-17 17h-167z m-83-33c4 0 9 2 12 5 3 3 5 7 5 11 0 5-2 9-5 12-6 6-18 6-24 0-3-3-5-7-5-12 0-4 2-8 5-11 3-3 8-5 12-5z m450-200h-117c-9 0-16-8-16-17 0-9 7-17 16-17h117c9 0 17 8 17 17 0 9-8 17-17 17z m-200 0h-167c-9 0-16-8-16-17 0-9 7-17 16-17h167c9 0 17 8 17 17 0 9-8 17-17 17z m-262-5c-3-3-5-7-5-12 0-4 2-9 5-12 3-3 8-5 12-5 5 0 9 2 12 5 3 3 5 8 5 12 0 5-2 9-5 12-6 6-17 6-24 0z m450 350c-3-3-5-8-5-12 0-4 2-9 5-12 3-3 8-5 12-5 4 0 9 2 12 5 3 3 5 8 5 12 0 4-2 9-5 12-6 6-17 6-24 0z m-59-257c3 3 4 7 4 12 0 4-1 8-4 12-7 6-18 6-24 0-3-4-5-8-5-12 0-5 2-9 5-12 3-3 7-5 12-5 4 0 8 2 12 5z m59 24c-3-4-5-8-5-12 0-5 2-9 5-12 3-3 8-5 12-5 5 0 9 2 12 5 3 3 5 7 5 12 0 4-2 8-5 12-6 6-18 6-24 0z" horiz-adv-x="1000" />

<glyph glyph-name="question-1" unicode="&#xe863;" d="M500 756c-224 0-406-182-406-406 0-224 182-406 406-406 224 0 406 182 406 406 0 224-182 406-406 406z m0-779c-205 0-372 168-372 373 0 205 167 373 372 373 205 0 373-167 373-373 0-205-168-373-373-373z m7 588c-84 0-131-40-132-122h37c-1 60 30 91 93 91 46 0 84-31 84-78 0-29-17-54-38-74-45-41-57-70-59-126h37c2 50 1 60 45 104 30 28 51 55 51 98 0 67-53 107-118 107z m1-364c-18 0-33-15-33-33 0-18 15-33 33-33 19 0 34 15 34 33 0 18-15 33-34 33z" horiz-adv-x="1000" />

<glyph glyph-name="sort-descending" unicode="&#xe865;" d="M966 4h-414c-19 0-34-15-34-34 0-19 15-35 34-35l414 1c19 0 34 15 34 34 0 19-15 34-34 34z m-483 760l483 0c19 0 34 15 34 34 0 19-15 35-34 35h-483c-19 0-34-16-34-35 0-19 15-34 34-34z m58-562c-13 13-35 13-49 0l-181-209v840h-69v-841l-183 210c-13 13-35 13-49 0-13-14-13-36 0-49l239-276c8-7 17-10 27-10 9 0 19 3 26 10l239 276c14 13 14 35 0 49z m425 424h-483c-19 0-34-16-34-35 0-19 15-34 34-34h483c19 0 34 15 34 34 0 19-15 35-34 35z m0-207h-483c-19 0-34-16-34-35 0-19 15-34 34-34l483 0c19 0 34 15 34 34 0 19-15 35-34 35z m0-207h-276c-19 0-35-16-35-35 0-19 16-34 35-34h276c19 0 34 15 34 34 0 19-15 35-34 35z" horiz-adv-x="1000" />

<glyph glyph-name="sun-weather" unicode="&#xe866;" d="M497 497c-89 0-161-72-161-161 0-89 72-161 161-161 89 0 161 72 161 161 0 89-72 161-161 161z m0-253c-51 0-92 41-92 92 0 51 41 92 92 92 51 0 92-41 92-92 0-51-41-92-92-92z m397 126h-156c-19 0-34-16-34-35 0-19 15-34 34-34h156c19 0 35 15 35 34 0 19-16 35-35 35z m-603-35c0 19-16 35-35 35h-156c-19 0-34-16-34-35 0-19 15-34 34-34h156c19 0 35 15 35 34z m206 207c19 0 35 15 35 34v156c0 19-16 35-35 35-19 0-34-16-34-35v-156c0-19 15-34 34-34z m0-413c-19 0-34-16-34-35v-156c0-19 15-34 34-34 19 0 35 15 35 34v156c0 19-16 35-35 35z m176 347c9 0 17 4 24 10l111 111c13 13 13 35 0 48-14 14-36 14-49 0l-110-110c-14-13-14-35 0-49 6-6 15-10 24-10z m-375-292l-111-110c-13-14-13-36 0-49 7-7 16-10 24-10 9 0 18 3 25 10l110 110c14 14 14 36 0 49-13 13-35 13-48 0z m399 0c-13 13-35 13-48 0-14-13-14-35 0-49l110-110c7-7 15-10 24-10 9 0 18 3 25 10 13 13 13 35 0 49l-111 110z m-399 302c6-6 15-10 24-10 9 0 17 4 24 10 14 14 14 36 0 49l-110 110c-14 14-35 14-49 0-13-13-13-35 0-48l111-111z" horiz-adv-x="1000" />

<glyph glyph-name="duplicate" unicode="&#xe867;" d="M938 225c0-34-28-62-63-62h-500c-34 0-62 28-62 62v500c0 35 28 63 62 63h500c35 0 63-28 63-63v-500 0z m-63 625h-500c-69 0-125-56-125-125v-500c0-69 56-125 125-125h500c69 0 125 56 125 125v500c0 69-56 125-125 125v0z m-187-875c0-35-28-63-63-63h-500c-34 0-62 28-62 63v500c0 35 28 63 62 63h63v62h-63c-69 0-125-56-125-125v-500c0-69 56-125 125-125h500c69 0 125 56 125 125v63h-62v-63 0z" horiz-adv-x="1000" />

<glyph glyph-name="gift-card" unicode="&#xe868;" d="M917 683h-834c-46 0-83-37-83-83v-500c0-46 37-83 83-83h834c46 0 83 37 83 83v500c0 46-37 83-83 83z m50-83v-217h-233c46 28 81 72 97 126 6 20 0 42-15 57-15 15-37 21-57 15-54-16-98-51-126-97v166h284c27 0 50-22 50-50z m-333-216c7 79 58 142 134 165 3 1 5 1 7 1 6 0 13-3 18-7 6-7 9-16 6-25-23-76-86-127-165-134z m-601 216c0 28 23 50 50 50h517v-166c-28 46-71 81-126 97-20 6-41 0-57-15-15-15-21-37-15-57 17-54 52-98 97-126h-466v217z m566-216c-78 7-142 58-165 134-2 9 0 18 7 25 7 6 16 9 24 6 76-23 128-86 134-165z m-566-284v250h543l-104-105c-7-6-7-17 0-23 3-4 7-5 11-5 5 0 9 1 12 5l105 104v-276h-517c-27 0-50 22-50 50z m884-50h-284v276l105-104c4-4 8-5 12-5 4 0 9 1 12 5 6 6 6 17 0 23l-105 105h310v-250c0-28-23-50-50-50z m-767 167h167c9 0 16 7 16 16 0 10-7 17-16 17h-167c-9 0-17-7-17-17 0-9 8-16 17-16z m300-34h-300c-9 0-17-7-17-16 0-9 8-17 17-17h300c9 0 17 8 17 17 0 9-8 16-17 16z" horiz-adv-x="1000" />

<glyph glyph-name="precision-select" unicode="&#xe869;" d="M967 367h-84c-9 198-168 357-366 366v84c0 9-8 16-17 16-9 0-17-7-17-16v-84c-198-9-357-168-365-366h-85c-9 0-16-8-16-17 0-9 7-17 16-17h85c8-198 167-357 365-366v-84c0-9 8-16 17-16 9 0 17 7 17 16v84c198 9 357 168 366 366h84c9 0 16 8 16 17 0 9-7 17-16 17z m-450-366v49c0 9-8 17-17 17-9 0-17-8-17-17v-49c-179 8-324 153-332 332h49c9 0 17 8 17 17 0 9-8 17-17 17h-49c8 179 153 324 332 332v-49c0-9 8-17 17-17 9 0 17 8 17 17v49c179-8 324-153 332-332h-49c-9 0-17-8-17-17 0-9 8-17 17-17h49c-8-179-153-324-332-332z m83 366h-83v83c0 9-8 17-17 17-9 0-17-8-17-17v-83h-83c-9 0-17-8-17-17 0-9 8-17 17-17h83v-83c0-9 8-17 17-17 9 0 17 8 17 17v83h83c9 0 17 8 17 17 0 9-8 17-17 17z" horiz-adv-x="1000" />

<glyph glyph-name="chat-user" unicode="&#xe86a;" d="M900 850h-433c-55 0-100-45-100-100v-50c0-9 7-17 16-17 10 0 17 8 17 17v50c0 37 30 67 67 67h433c37 0 67-30 67-67v-200c0-37-30-67-67-67h-67c-4 0-9-2-12-5l-109-122 21 107c1 5 0 10-3 14-4 4-8 6-13 6h-34c-9 0-16-7-16-16 0-9 7-17 16-17h13l-29-147c-1-7 2-14 9-18 2-1 5-2 7-2 5 0 10 2 13 6l145 161h59c55 0 100 45 100 100v200c0 55-45 100-100 100z m-242-801l-128 31-10 44c34 34 57 80 64 128 19 5 34 21 36 42l9 67c1 14-3 28-12 38-6 7-13 11-20 14l3 63 12 13c19 20 35 54 2 104-25 38-67 57-126 57-23 0-77 0-127-33-142-3-161-69-161-134 0-15 4-48 6-69-8-2-16-7-22-14-10-11-14-25-12-39l8-67c3-22 19-39 40-43 7-46 29-91 61-124l-11-47-128-31c-84-21-142-96-142-182 0-10 8-17 17-17h766c10 0 17 7 17 17 0 86-58 161-142 182z m-624-166c7 64 53 117 116 133l137 35c6 1 11 6 13 12l16 65c1 6 0 12-5 16-34 32-56 78-59 124-1 9-8 15-17 15h-6c-8 0-15 7-16 15l-8 67c-1 4 0 9 4 13 3 3 7 5 12 5h4c4 0 9 2 12 6 3 4 5 8 4 13-2 17-8 65-8 81 0 52 11 99 134 100 3 0 7 1 9 3 38 27 78 31 112 31 47 0 80-15 98-43 22-34 13-51 2-62l-16-17c-3-3-5-7-5-11l-4-83c-1-5 1-9 4-12 3-4 8-6 12-6 5 0 9-2 13-5 3-4 4-9 4-13l-9-67c-1-8-8-15-18-15-9 0-16-6-17-15-3-47-27-95-62-126-5-4-7-11-5-17l16-62c1-6 6-11 12-12l137-35c63-16 109-69 116-133h-732z" horiz-adv-x="1000" />

<glyph glyph-name="financial-care" unicode="&#xe86b;" d="M998 41c-9 18-21 33-36 45 4 20 6 41 6 62 0 100-171 324-233 402h48c10 0 17 8 17 17 0 9-7 16-17 16h-35c56 47 153 134 159 192 1 14-3 26-11 36-34 38-126-18-176-54-26 36-73 93-103 93-31 0-78-57-104-93-50 36-142 92-175 54-9-10-13-22-11-36 5-58 102-145 159-192h-36c-9 0-17-7-17-16 0-9 8-17 17-17h48c-51-61-170-209-210-303l-44 10c3 15 5 29 6 42 0 5-1 10-5 13-36 34-196 38-228 38-3 0-9-2-12-5-3-3-5-7-5-12v-400c0-9 8-16 17-16h133c8 0 14 5 16 12 1 2 5 17 11 40l296-98c35-14 59-21 86-21 42 0 91 18 200 63l231 105c4 2 8 6 9 10 2 4 1 9-1 13z m-638 737c-1 6 1 9 3 11 9 11 75-18 144-69 3-3 8-4 12-3 5 1 9 3 11 7 34 48 74 91 86 93 13-2 53-45 87-93 3-4 7-6 11-7 5-1 9 0 13 3 68 51 134 80 144 69 2-2 3-5 3-11-5-46-111-142-180-195h-155c-69 53-175 149-179 195z m181-228h151c72-88 243-315 243-402 0-15-2-30-4-44-26 11-55 14-85 7l-141-36c-2 27-11 48-26 64 13 14 21 32 21 50 0 36-22 60-67 72v87c19-6 33-20 34-38 0-9 9-16 18-15 9 0 16 8 15 18-2 34-31 62-67 69v18c0 9-7 17-16 17-9 0-17-8-17-17v-18c-38-7-67-38-67-74 0-36 22-59 67-72v-58l-279 62c46 102 191 276 220 310z m59-279c-22 8-33 19-33 37 0 18 14 34 33 39v-76z m33-45c23-7 34-19 34-37 0-10-5-19-12-27-1-1-2-2-2-3-6 3-13 6-20 9v58z m-600-276v366c67-1 155-9 183-24-9-75-43-209-64-289-2-2-3-4-4-6-1-3-1-6 0-9-5-16-8-29-11-38 0 0-104 0-104 0z m713-6c-174-72-184-71-262-42l-298 100c16 61 39 149 53 222l362-81c50-12 70-33 71-76l-43-11c-16-3-33-4-48-1l-183 37c-9 2-18-4-19-13-2-9 4-18 13-20l182-36c9-2 19-3 28-3 12 0 23 1 35 4l56 14c0 0 0 0 0 0l161 40c41 11 82-5 105-37l-213-97z" horiz-adv-x="1000" />

<glyph glyph-name="male" unicode="&#xe86c;" d="M258 363l4-1c1 0 3 0 4 0 37-127 127-212 230-212 105 0 208 90 245 213 0 0 0 0 1 0 33 0 58 43 58 100 0 16-2 32-6 47 4 21 6 39 6 57 0 153-139 283-304 283-163 0-296-127-296-283 0-18 2-36 7-57-5-15-7-31-7-47 0-57 25-100 58-100z m484 33c0 0-1 0-4 1-4 3-10 4-15 2-5-2-8-6-10-12-28-114-124-204-217-204-91 0-171 81-201 200-1 5-5 10-10 12-2 0-4 1-6 1-2 0-4-1-6-1-2 0-6 0-8 0-2 1-5 1-7 1-8 0-25 25-25 67 0 7 1 14 2 20h48c9 0 17 8 17 17 1 53 10 106 19 117 3 0 7-1 12-1 30-2 81-6 112 23 5 4 9 9 12 15 38-46 120-98 213-104 8-35 36-61 37-62 4-3 8-5 12-5h48c1-6 2-13 2-20 0-42-16-67-25-67z m-246 421c147 0 271-115 271-250 0-16-2-32-6-50h-37c-8 8-24 28-24 50 0 9-7 16-17 16-124 0-216 93-216 117 0 9-8 17-17 17-9 0-17-8-17-17 0-16-4-28-13-37-20-18-62-16-87-14-6 1-12 1-16 1-29 0-46-45-50-133h-28c-4 18-6 34-6 50 0 138 118 250 263 250z m317-626c-1 0-2 0-3 0l-107 21c-5 1-11-1-15-5-54-58-122-90-192-90-70 0-139 32-192 90-4 4-10 6-15 5l-110-21c-110-39-179-178-179-285v-39c0-10 8-17 17-17h966c10 0 17 7 17 17v30c0 108-77 255-187 294z m154-308h-934v23c0 95 60 220 155 253l98 19c59-61 133-95 210-95 77 0 151 34 210 95l97-19c94-34 164-166 164-262v-14z" horiz-adv-x="1000" />

<glyph glyph-name="tag" unicode="&#xe86d;" d="M983 850h-383c-4 0-9-2-12-5l-583-583c-7-7-7-17 0-24l383-383c3-3 8-5 12-5 3 0 9 2 12 5l583 600c3 3 5 7 5 12v366c0 10-7 17-17 17z m-16-377l-567-583-360 360 567 567h360v-344z m-200 44c55 0 100 45 100 100 0 55-45 100-100 100-55 0-100-45-100-100 0-55 45-100 100-100z m0 166c36 0 66-30 66-66 0-37-30-67-66-67-37 0-67 30-67 67 0 36 30 66 67 66z" horiz-adv-x="1000" />

<glyph glyph-name="click" unicode="&#xe86e;" d="M450 683c9 0 17 8 17 17v133c0 10-8 17-17 17-9 0-17-7-17-17v-133c0-9 8-17 17-17z m-150-150c0 10-7 17-17 17h-133c-9 0-17-7-17-17 0-9 8-16 17-16h133c10 0 17 7 17 16z m300 0c0-9 8-16 17-16h133c9 0 17 7 17 16 0 10-8 17-17 17h-133c-9 0-17-7-17-17z m262-388l-400 400c-5 5-12 6-18 4-7-3-11-9-11-16v-566c0-7 4-13 10-16 6-2 13-1 18 3l101 87 107-183c3-5 9-8 14-8 3 0 6 1 9 2l116 67c4 2 7 6 8 10 1 4 1 9-2 13l-102 175h138c7 0 13 4 15 10 3 6 2 13-3 18z m-179 5c-6 0-11-3-14-8-3-5-3-12 0-17l108-186-88-50-108 186c-2 4-7 7-12 8 0 0-1 0-2 0-4 0-8-1-11-4l-89-76v490l343-343h-127z m-433 607c-7 7-17 7-24 0-6-6-6-17 0-23l94-95c4-3 8-4 12-4 4 0 9 1 12 4 6 7 6 18 0 24l-94 94z m318-122c4 0 8 1 12 4l94 95c6 6 6 17 0 23-7 7-17 7-24 0l-94-94c-6-6-6-17 0-24 3-3 8-4 12-4z m-248-208l-94-94c-6-6-6-17 0-24 3-3 8-4 12-4 4 0 8 1 12 4l94 95c6 6 6 17 0 23-7 7-17 7-24 0z" horiz-adv-x="1000" />

<glyph glyph-name="chat" unicode="&#xe86f;" d="M883 583h-251c-8 57-57 100-115 100h-400c-65 0-117-52-117-116v-234c0-64 52-116 117-116h12l-28-113c-2-7 1-14 7-18 2-2 6-3 9-3 3 0 7 2 10 4l162 130h89c19-40 59-67 105-67h228l162-130c3-2 7-3 10-3 4 0 7 1 9 2 6 4 9 11 8 18l-29 113h12c65 0 117 52 117 117v200c0 64-52 116-117 116z m-515-333h-85c-3 0-7-1-10-4l-128-102 21 85c1 5 0 11-3 15-3 4-8 6-13 6h-33c-46 0-84 37-84 83v234c0 46 38 83 84 83h400c40 0 74-29 81-67h-115c-64 0-116-52-116-116v-200c0-6 0-11 1-17z m599 17c0-46-38-84-84-84h-33c-5 0-10-2-13-6-3-4-4-9-3-14l21-86-128 103c-3 2-6 3-10 3h-234c-36 0-66 24-78 56 0 0 0 0 0 0-1 5-3 9-4 14 0 4-1 9-1 14v200c0 46 37 83 83 83h134 266c46 0 84-37 84-83v-200z" horiz-adv-x="1000" />

<glyph glyph-name="like" unicode="&#xe870;" d="M164 109c-48 0-86-39-86-87 0-47 38-86 86-86 47 0 86 39 86 86 0 48-39 87-86 87z m0-138c-29 0-52 23-52 51 0 29 23 52 52 52 28 0 52-23 52-52 0-28-24-51-52-51z m810 276c0 43-24 63-47 73 18 15 30 39 30 65 0 47-39 86-86 86h-248l13 59c16 78 5 167 2 192-9 61-63 128-120 128h-5c-27 0-73-16-73-121 0-138-35-201-64-230-28-28-55-28-57-28h-17v34h-276v-655h276v34h483c47 0 86 39 86 87 0 20-7 38-19 53 40 7 70 43 70 85 0 20-6 38-18 53 40 7 70 43 70 85z m-914-363v587h207v-587h-207z m828 311h-190c-9 0-17-8-17-17 0-10 8-18 17-18h138c29 0 52-23 52-51 0-29-23-52-52-52h-172c-10 0-17-8-17-17 0-10 7-18 17-18h121c28 0 51-23 51-51 0-29-23-52-51-52h-483v517l16 0c2 0 42-1 81 37 50 48 75 135 75 256 0 33 5 87 39 87h5c38 0 79-54 85-99 4-24 14-107-1-180l-22-101h291c28 0 51-23 51-51 0-29-23-52-51-52h-173c-9 0-17-8-17-17 0-10 8-18 17-18h121c15 0 49 0 66-3 45-7 55-24 55-48 0-29-24-52-52-52z" horiz-adv-x="1000" />

<glyph glyph-name="emoji-smile" unicode="&#xe871;" d="M667 294h55c0-122-99-222-222-222-123 0-222 100-222 222h55c0-92 75-166 167-166 92 0 167 74 167 166z m-167-444c276 0 500 224 500 500 0 276-224 500-500 500-276 0-500-224-500-500 0-276 224-500 500-500z m0 56c246 0 444 199 444 444 0 246-198 444-444 444-245 0-444-198-444-444 0-245 199-444 444-444z m-167 500c31 0 56 24 56 55 0 31-25 56-56 56-30 0-55-25-55-56 0-31 25-55 55-55z m334 0c30 0 55 24 55 55 0 31-25 56-55 56-31 0-56-25-56-56 0-31 25-55 56-55z" horiz-adv-x="1000" />

<glyph glyph-name="login-form" unicode="&#xe872;" d="M900 833h-800c-46 0-83-37-83-83v-800c0-46 37-83 83-83h800c46 0 83 37 83 83v800c0 46-37 83-83 83z m50-883c0-28-22-50-50-50h-800c-28 0-50 22-50 50v800c0 28 22 50 50 50h800c28 0 50-22 50-50v-800z m-150 283h-600c-46 0-83-37-83-83v-100c0-46 37-83 83-83h600c46 0 83 37 83 83v100c0 46-37 83-83 83z m50-183c0-28-22-50-50-50h-600c-28 0-50 22-50 50v100c0 28 22 50 50 50h600c28 0 50-22 50-50v-100z m-538 112c-7 6-17 6-24 0l-38-38-38 38c-7 6-17 6-24 0-6-7-6-17 0-24l38-38-38-38c-6-7-6-17 0-24 4-3 8-5 12-5 4 0 9 2 12 5l38 38 38-38c4-3 8-5 12-5 4 0 9 2 12 5 6 7 6 17 0 24l-38 38 38 38c6 7 6 17 0 24z m166 0c-6 6-17 6-23 0l-38-38-38 38c-7 6-18 6-24 0-7-7-7-17 0-24l38-38-38-38c-7-7-7-17 0-24 3-3 7-5 12-5 4 0 8 2 11 5l39 38 38-38c3-3 7-5 12-5 4 0 8 2 11 5 7 7 7 17 0 24l-38 38 38 38c7 7 7 17 0 24z m-225 339c0-4 1-8 1-12 1-4 2-8 3-12 1-3 2-6 3-9 1-4 2-9 4-13 1-3 2-5 3-7 1-5 3-9 5-14 1-2 2-4 3-6 3-5 5-9 8-13 1-2 2-4 3-6 3-4 6-8 9-13 1-1 2-3 3-4 4-5 7-9 11-13 0 0 1-1 1-2 1 0 1 0 1 0 43-47 104-77 172-77 69 0 130 30 173 77 0 0 0 0 0 0 1 1 1 2 2 2 4 4 7 8 10 13 2 1 3 3 4 4 3 5 6 9 9 13 1 2 2 4 3 6 2 4 5 9 7 13 1 2 2 4 3 6 2 5 4 9 6 14 1 2 2 4 3 7 1 4 3 9 4 13 1 3 2 6 2 9 2 4 3 8 3 12 1 4 2 8 2 12 1 3 1 6 2 10 0 7 1 15 1 22 0 8-1 16-1 24-2 16-5 31-10 46-4 14-10 28-17 42-15 26-34 49-57 68-41 34-92 54-149 54-56 0-108-20-148-54-23-19-42-42-57-69-7-13-13-27-17-41-5-15-8-30-10-46-1-8-1-16-1-24 0-7 0-15 1-22 1-3 1-7 2-10z m91-111c30 48 83 77 139 77 57 0 109-29 140-77-36-35-85-57-140-57-54 0-103 22-139 57z m73 177c0 36 30 66 66 66 37 0 67-30 67-66 0-37-30-67-67-67-36 0-66 30-66 67z m7 157c13 4 26 7 39 8 7 1 13 1 20 1 111 0 200-89 200-200 0-9-1-19-2-28 0-2 0-3-1-5-3-19-9-38-18-55 0-1 0-2 0-2-5-9-10-18-16-26 0 0 0 0 0 0-25 34-60 59-100 73 23 18 37 46 37 77 0 55-44 100-100 100-55 0-100-45-100-100 0-31 15-59 38-77-40-14-75-39-100-73 0 0 0 0 0 0-6 8-11 17-16 26 0 0 0 1-1 2-8 17-14 36-18 55 0 2 0 3 0 5-2 9-3 19-3 28 0 49 18 93 46 128 12 14 27 27 43 38 16 11 33 20 52 25z" horiz-adv-x="1000" />

<glyph glyph-name="lock-user" unicode="&#xe873;" d="M749 761c30-45 17-68 2-83l-21-21c-3-3-5-7-5-11l-5-104c-1-5 1-9 4-13 3-3 7-5 12-5 8 0 15-3 20-9 4-5 6-12 5-19l-10-83c-2-13-13-22-28-22-8 0-15-6-16-14-5-24-21-51-21-51-5-8-2-19 5-23 8-5 18-3 23 5 1 1 15 25 22 51 25 5 45 24 48 50l11 83c2 16-3 33-14 45-7 9-17 15-27 18l4 83 17 16c23 24 42 65 2 125-32 47-85 70-158 70-4 0-9 0-14 1-33 0-75 2-127-33-144-3-211-56-211-167 0-19 3-68 4-94-12-2-23-9-31-18-11-13-16-30-14-46l10-83c4-27 25-47 51-51 8-58 37-115 79-157l-16-63-166-40c-105-26-184-125-184-231 0-9 8-17 17-17h533c9 0 17 8 17 17 0 9-8 16-17 16h-516c8 84 75 162 158 182l176 43c6 2 11 6 12 12l21 82c2 6 0 12-5 16-44 40-73 99-77 158-1 8-8 15-17 15h-7c-13 0-24 9-26 22l-10 83c-1 7 1 14 6 19 5 6 12 9 19 9h5c4 0 9 2 12 6 3 3 5 7 4 12 0 1-5 83-5 108 0 65 22 132 184 134 3 0 6 1 9 3 45 31 80 30 111 29 5 0 10 0 15 0 62 0 105-19 130-55z m234-611h-16v17c0 83-68 150-150 150-83 0-150-67-150-150v-17h-17c-9 0-17-7-17-16v-267c0-9 8-17 17-17h333c10 0 17 8 17 17v267c0 9-7 16-17 16z m-283 17c0 64 52 117 117 117 64 0 116-53 116-117v-17h-233v17z m267-284h-300v234h300v-234z m-150 201c-28 0-50-23-50-50 0-22 14-41 33-47v-20c0-9 8-17 17-17 9 0 16 8 16 17v20c20 6 34 25 34 47 0 27-23 50-50 50z" horiz-adv-x="1000" />

<glyph glyph-name="warning" unicode="&#xe877;" d="M925-100h-900c-9 0-17 5-22 12-4 8-4 18 0 25l450 800c5 8 13 13 22 13 9 0 17-5 22-13l450-800c4-7 4-17 0-25-5-7-13-12-22-12z m-857 50h814l-407 724-407-724z m407 200c-14 0-25 11-25 25v250c0 14 11 25 25 25 14 0 25-11 25-25v-250c0-14-11-25-25-25z m0-150c-14 0-25 11-25 25v50c0 14 11 25 25 25 14 0 25-11 25-25v-50c0-14-11-25-25-25z" horiz-adv-x="1000" />

<glyph glyph-name="warning-1" unicode="&#xe878;" d="M500 850c-276 0-500-224-500-500 0-276 224-500 500-500 276 0 500 224 500 500 0 276-224 500-500 500z m0-962c-254 0-461 208-461 462 0 255 207 462 461 462 255 0 462-207 462-462 0-254-207-462-462-462z m0 770c-11 0-19-9-19-19v-424c0-10 8-19 19-19 11 0 19 9 19 19v424c0 10-8 19-19 19z m0-519c-11 0-19-9-19-20v-38c0-11 8-19 19-19 11 0 19 8 19 19v38c0 11-8 20-19 20z" horiz-adv-x="1000" />

<glyph glyph-name="refresh" unicode="&#xe879;" d="M742 788h227c17 0 31 14 31 31 0 17-14 31-31 31h-313c-3 0-31 0-31-31v-313c0-17 14-31 31-31 18 0 32 14 32 31v239c147-70 250-221 250-395 0-242-196-438-438-438-242 0-437 196-437 438 0 220 163 402 375 433v63c-247-31-438-241-438-496 0-276 224-500 500-500 276 0 500 224 500 500 0 188-104 352-258 438" horiz-adv-x="1000" />

<glyph glyph-name="call-center" unicode="&#xe87a;" d="M500 833c-266 0-483-216-483-483 0-266 217-483 483-483 157 0 305 76 395 205 1 1 3 2 3 4 16 31 7 55-2 69-25 38-89 55-146 55v22c0 25-20 45-44 45-18 0-33 7-50 16-11 5-22 11-34 15-16 5-33 1-46-11l-46-50c-66 36-107 78-143 143l50 47c12 11 16 29 11 45l-6 17c-10 29-25 74-25 100 0 24-20 44-45 44h-111c-24 0-44-20-44-44 0-278 228-522 489-522 24 0 44 20 44 44v56c52 0 102-16 118-40 7-10 7-21 1-34 0 0 0 0 0 0-84-121-222-193-369-193-248 0-450 202-450 450 0 248 202 450 450 450 248 0 450-202 450-450 0-9 8-17 17-17 9 0 16 8 16 17 0 267-216 483-483 483z m217-722c0-6-5-11-11-11-243 0-456 229-456 489 0 6 5 11 11 11h111c6 0 11-5 11-11 0-32 16-77 27-111l6-16c1-5 0-9-2-12l-59-55c-5-5-7-13-3-19 41-82 92-132 174-174 6-4 14-2 20 3l54 58c3 3 8 4 12 3 10-3 19-8 29-13 19-10 39-20 65-20 6 0 11-5 11-11 0 0 0-111 0-111z" horiz-adv-x="1000" />

<glyph glyph-name="info" unicode="&#xf086;" d="M0 350q0 95 37 182t100 149 149 100 183 37q95 0 182-37t149-100 100-149 37-182q0-95-37-182t-100-150-149-100-182-37q-96 0-183 37t-149 100-100 150-37 182z m117 0q0-71 28-137t75-112 112-75 137-28 136 28 112 75 75 112 28 137-28 136-75 112-112 75-136 28-137-28-112-75-75-112-28-136z m281 170q0 28 20 45t51 17q32 0 51-17t19-45-19-46-51-17q-32 0-51 17t-20 46z m5-402v299h132v-299h-132z" horiz-adv-x="937.5" />

<glyph glyph-name="bookmark-empty-1" unicode="&#xf097;" d="M643 707h-572v-693l237 227 49 47 50-47 236-227v693z m7 72q12 0 24-5 19-8 29-23t11-35v-719q0-19-11-35t-29-23q-10-4-24-4-27 0-47 18l-246 236-246-236q-20-19-46-19-13 0-25 5-18 7-29 23t-11 35v719q0 19 11 35t29 23q12 5 25 5h585z" horiz-adv-x="714.3" />

</font>
</defs>
</svg>
